<svg width="829" height="241" xmlns="http://www.w3.org/2000/svg">
  <rect width="829" height="241" fill="#0d1117" rx="6"/>

  <!-- Title -->
  <text x="20" y="40" fill="#c9d1d9" font-family="Arial, sans-serif" font-size="18" font-weight="bold">
    GitLab Contributions
  </text>
  <text x="20" y="56" fill="#c9d1d9" font-family="Arial, sans-serif" font-size="11" opacity="0.85">
    Last 365 days
  </text>

  <!-- Stats -->
  <text x="20" y="74" fill="#c9d1d9" font-family="Arial, sans-serif" font-size="12">
    Activity: 18 (7d) · 39 (30d) · 90 repos
  </text>
  <text x="20" y="92" fill="#c9d1d9" font-family="Arial, sans-serif" font-size="12">
    Total: 563 contributions (last 365 days)
  </text>

  <!-- Contribution Grid -->
  <g transform="translate(50, 130)">
    <text x="5.0" y="10" fill="#c9d1d9" font-family="Arial, sans-serif" font-size="8" text-anchor="middle">Apr '25</text>
    <text x="31.0" y="10" fill="#c9d1d9" font-family="Arial, sans-serif" font-size="8" text-anchor="middle">May</text>
    <text x="83.0" y="10" fill="#c9d1d9" font-family="Arial, sans-serif" font-size="8" text-anchor="middle">Jun</text>
    <text x="148.0" y="10" fill="#c9d1d9" font-family="Arial, sans-serif" font-size="8" text-anchor="middle">Jul</text>
    <text x="200.0" y="10" fill="#c9d1d9" font-family="Arial, sans-serif" font-size="8" text-anchor="middle">Aug</text>
    <text x="265.0" y="10" fill="#c9d1d9" font-family="Arial, sans-serif" font-size="8" text-anchor="middle">Sep</text>
    <text x="317.0" y="10" fill="#c9d1d9" font-family="Arial, sans-serif" font-size="8" text-anchor="middle">Oct</text>
    <text x="369.0" y="10" fill="#c9d1d9" font-family="Arial, sans-serif" font-size="8" text-anchor="middle">Nov</text>
    <text x="434.0" y="10" fill="#c9d1d9" font-family="Arial, sans-serif" font-size="8" text-anchor="middle">Dec</text>
    <text x="486.0" y="10" fill="#c9d1d9" font-family="Arial, sans-serif" font-size="8" text-anchor="middle">Jan</text>
    <text x="538.0" y="10" fill="#c9d1d9" font-family="Arial, sans-serif" font-size="8" text-anchor="middle">Feb</text>
    <text x="590.0" y="10" fill="#c9d1d9" font-family="Arial, sans-serif" font-size="8" text-anchor="middle">Mar</text>
    <text x="655.0" y="10" fill="#c9d1d9" font-family="Arial, sans-serif" font-size="8" text-anchor="middle">Apr '26</text>
    <text x="-25" y="39" fill="#c9d1d9" font-family="Arial, sans-serif" font-size="9">Mon</text>
    <text x="-25" y="65" fill="#c9d1d9" font-family="Arial, sans-serif" font-size="9">Wed</text>
    <text x="-25" y="91" fill="#c9d1d9" font-family="Arial, sans-serif" font-size="9">Fri</text>
    <rect x="0" y="16" width="10" height="10" fill="#161b22" rx="2"><title>2025-04-14: 0 contributions</title></rect>
    <rect x="0" y="29" width="10" height="10" fill="#0e4429" rx="2"><title>2025-04-15: 3 contributions</title></rect>
    <rect x="0" y="42" width="10" height="10" fill="#161b22" rx="2"><title>2025-04-16: 0 contributions</title></rect>
    <rect x="0" y="55" width="10" height="10" fill="#0e4429" rx="2"><title>2025-04-17: 1 contributions</title></rect>
    <rect x="0" y="68" width="10" height="10" fill="#161b22" rx="2"><title>2025-04-18: 0 contributions</title></rect>
    <rect x="0" y="81" width="10" height="10" fill="#161b22" rx="2"><title>2025-04-19: 0 contributions</title></rect>
    <rect x="0" y="94" width="10" height="10" fill="#161b22" rx="2"><title>2025-04-20: 0 contributions</title></rect>
    <rect x="13" y="16" width="10" height="10" fill="#006d32" rx="2"><title>2025-04-21: 4 contributions</title></rect>
    <rect x="13" y="29" width="10" height="10" fill="#161b22" rx="2"><title>2025-04-22: 0 contributions</title></rect>
    <rect x="13" y="42" width="10" height="10" fill="#0e4429" rx="2"><title>2025-04-23: 1 contributions</title></rect>
    <rect x="13" y="55" width="10" height="10" fill="#006d32" rx="2"><title>2025-04-24: 6 contributions</title></rect>
    <rect x="13" y="68" width="10" height="10" fill="#006d32" rx="2"><title>2025-04-25: 6 contributions</title></rect>
    <rect x="13" y="81" width="10" height="10" fill="#161b22" rx="2"><title>2025-04-26: 0 contributions</title></rect>
    <rect x="13" y="94" width="10" height="10" fill="#161b22" rx="2"><title>2025-04-27: 0 contributions</title></rect>
    <rect x="26" y="16" width="10" height="10" fill="#161b22" rx="2"><title>2025-04-28: 0 contributions</title></rect>
    <rect x="26" y="29" width="10" height="10" fill="#161b22" rx="2"><title>2025-04-29: 0 contributions</title></rect>
    <rect x="26" y="42" width="10" height="10" fill="#0e4429" rx="2"><title>2025-04-30: 1 contributions</title></rect>
    <rect x="26" y="55" width="10" height="10" fill="#161b22" rx="2"><title>2025-05-01: 0 contributions</title></rect>
    <rect x="26" y="68" width="10" height="10" fill="#161b22" rx="2"><title>2025-05-02: 0 contributions</title></rect>
    <rect x="26" y="81" width="10" height="10" fill="#161b22" rx="2"><title>2025-05-03: 0 contributions</title></rect>
    <rect x="26" y="94" width="10" height="10" fill="#161b22" rx="2"><title>2025-05-04: 0 contributions</title></rect>
    <rect x="39" y="16" width="10" height="10" fill="#161b22" rx="2"><title>2025-05-05: 0 contributions</title></rect>
    <rect x="39" y="29" width="10" height="10" fill="#161b22" rx="2"><title>2025-05-06: 0 contributions</title></rect>
    <rect x="39" y="42" width="10" height="10" fill="#161b22" rx="2"><title>2025-05-07: 0 contributions</title></rect>
    <rect x="39" y="55" width="10" height="10" fill="#0e4429" rx="2"><title>2025-05-08: 3 contributions</title></rect>
    <rect x="39" y="68" width="10" height="10" fill="#39d353" rx="2"><title>2025-05-09: 11 contributions</title></rect>
    <rect x="39" y="81" width="10" height="10" fill="#161b22" rx="2"><title>2025-05-10: 0 contributions</title></rect>
    <rect x="39" y="94" width="10" height="10" fill="#26a641" rx="2"><title>2025-05-11: 7 contributions</title></rect>
    <rect x="52" y="16" width="10" height="10" fill="#161b22" rx="2"><title>2025-05-12: 0 contributions</title></rect>
    <rect x="52" y="29" width="10" height="10" fill="#006d32" rx="2"><title>2025-05-13: 5 contributions</title></rect>
    <rect x="52" y="42" width="10" height="10" fill="#006d32" rx="2"><title>2025-05-14: 4 contributions</title></rect>
    <rect x="52" y="55" width="10" height="10" fill="#0e4429" rx="2"><title>2025-05-15: 3 contributions</title></rect>
    <rect x="52" y="68" width="10" height="10" fill="#0e4429" rx="2"><title>2025-05-16: 1 contributions</title></rect>
    <rect x="52" y="81" width="10" height="10" fill="#161b22" rx="2"><title>2025-05-17: 0 contributions</title></rect>
    <rect x="52" y="94" width="10" height="10" fill="#161b22" rx="2"><title>2025-05-18: 0 contributions</title></rect>
    <rect x="65" y="16" width="10" height="10" fill="#006d32" rx="2"><title>2025-05-19: 6 contributions</title></rect>
    <rect x="65" y="29" width="10" height="10" fill="#161b22" rx="2"><title>2025-05-20: 0 contributions</title></rect>
    <rect x="65" y="42" width="10" height="10" fill="#26a641" rx="2"><title>2025-05-21: 8 contributions</title></rect>
    <rect x="65" y="55" width="10" height="10" fill="#161b22" rx="2"><title>2025-05-22: 0 contributions</title></rect>
    <rect x="65" y="68" width="10" height="10" fill="#161b22" rx="2"><title>2025-05-23: 0 contributions</title></rect>
    <rect x="65" y="81" width="10" height="10" fill="#0e4429" rx="2"><title>2025-05-24: 2 contributions</title></rect>
    <rect x="65" y="94" width="10" height="10" fill="#161b22" rx="2"><title>2025-05-25: 0 contributions</title></rect>
    <rect x="78" y="16" width="10" height="10" fill="#161b22" rx="2"><title>2025-05-26: 0 contributions</title></rect>
    <rect x="78" y="29" width="10" height="10" fill="#0e4429" rx="2"><title>2025-05-27: 2 contributions</title></rect>
    <rect x="78" y="42" width="10" height="10" fill="#161b22" rx="2"><title>2025-05-28: 0 contributions</title></rect>
    <rect x="78" y="55" width="10" height="10" fill="#39d353" rx="2"><title>2025-05-29: 20 contributions</title></rect>
    <rect x="78" y="68" width="10" height="10" fill="#0e4429" rx="2"><title>2025-05-30: 2 contributions</title></rect>
    <rect x="78" y="81" width="10" height="10" fill="#006d32" rx="2"><title>2025-05-31: 4 contributions</title></rect>
    <rect x="78" y="94" width="10" height="10" fill="#0e4429" rx="2"><title>2025-06-01: 2 contributions</title></rect>
    <rect x="91" y="16" width="10" height="10" fill="#26a641" rx="2"><title>2025-06-02: 8 contributions</title></rect>
    <rect x="91" y="29" width="10" height="10" fill="#161b22" rx="2"><title>2025-06-03: 0 contributions</title></rect>
    <rect x="91" y="42" width="10" height="10" fill="#161b22" rx="2"><title>2025-06-04: 0 contributions</title></rect>
    <rect x="91" y="55" width="10" height="10" fill="#161b22" rx="2"><title>2025-06-05: 0 contributions</title></rect>
    <rect x="91" y="68" width="10" height="10" fill="#161b22" rx="2"><title>2025-06-06: 0 contributions</title></rect>
    <rect x="91" y="81" width="10" height="10" fill="#161b22" rx="2"><title>2025-06-07: 0 contributions</title></rect>
    <rect x="91" y="94" width="10" height="10" fill="#161b22" rx="2"><title>2025-06-08: 0 contributions</title></rect>
    <rect x="104" y="16" width="10" height="10" fill="#161b22" rx="2"><title>2025-06-09: 0 contributions</title></rect>
    <rect x="104" y="29" width="10" height="10" fill="#161b22" rx="2"><title>2025-06-10: 0 contributions</title></rect>
    <rect x="104" y="42" width="10" height="10" fill="#161b22" rx="2"><title>2025-06-11: 0 contributions</title></rect>
    <rect x="104" y="55" width="10" height="10" fill="#0e4429" rx="2"><title>2025-06-12: 2 contributions</title></rect>
    <rect x="104" y="68" width="10" height="10" fill="#006d32" rx="2"><title>2025-06-13: 6 contributions</title></rect>
    <rect x="104" y="81" width="10" height="10" fill="#161b22" rx="2"><title>2025-06-14: 0 contributions</title></rect>
    <rect x="104" y="94" width="10" height="10" fill="#006d32" rx="2"><title>2025-06-15: 4 contributions</title></rect>
    <rect x="117" y="16" width="10" height="10" fill="#0e4429" rx="2"><title>2025-06-16: 2 contributions</title></rect>
    <rect x="117" y="29" width="10" height="10" fill="#0e4429" rx="2"><title>2025-06-17: 1 contributions</title></rect>
    <rect x="117" y="42" width="10" height="10" fill="#161b22" rx="2"><title>2025-06-18: 0 contributions</title></rect>
    <rect x="117" y="55" width="10" height="10" fill="#161b22" rx="2"><title>2025-06-19: 0 contributions</title></rect>
    <rect x="117" y="68" width="10" height="10" fill="#0e4429" rx="2"><title>2025-06-20: 3 contributions</title></rect>
    <rect x="117" y="81" width="10" height="10" fill="#26a641" rx="2"><title>2025-06-21: 8 contributions</title></rect>
    <rect x="117" y="94" width="10" height="10" fill="#161b22" rx="2"><title>2025-06-22: 0 contributions</title></rect>
    <rect x="130" y="16" width="10" height="10" fill="#0e4429" rx="2"><title>2025-06-23: 2 contributions</title></rect>
    <rect x="130" y="29" width="10" height="10" fill="#0e4429" rx="2"><title>2025-06-24: 1 contributions</title></rect>
    <rect x="130" y="42" width="10" height="10" fill="#161b22" rx="2"><title>2025-06-25: 0 contributions</title></rect>
    <rect x="130" y="55" width="10" height="10" fill="#161b22" rx="2"><title>2025-06-26: 0 contributions</title></rect>
    <rect x="130" y="68" width="10" height="10" fill="#0e4429" rx="2"><title>2025-06-27: 1 contributions</title></rect>
    <rect x="130" y="81" width="10" height="10" fill="#161b22" rx="2"><title>2025-06-28: 0 contributions</title></rect>
    <rect x="130" y="94" width="10" height="10" fill="#161b22" rx="2"><title>2025-06-29: 0 contributions</title></rect>
    <rect x="143" y="16" width="10" height="10" fill="#161b22" rx="2"><title>2025-06-30: 0 contributions</title></rect>
    <rect x="143" y="29" width="10" height="10" fill="#161b22" rx="2"><title>2025-07-01: 0 contributions</title></rect>
    <rect x="143" y="42" width="10" height="10" fill="#161b22" rx="2"><title>2025-07-02: 0 contributions</title></rect>
    <rect x="143" y="55" width="10" height="10" fill="#161b22" rx="2"><title>2025-07-03: 0 contributions</title></rect>
    <rect x="143" y="68" width="10" height="10" fill="#161b22" rx="2"><title>2025-07-04: 0 contributions</title></rect>
    <rect x="143" y="81" width="10" height="10" fill="#26a641" rx="2"><title>2025-07-05: 7 contributions</title></rect>
    <rect x="143" y="94" width="10" height="10" fill="#0e4429" rx="2"><title>2025-07-06: 2 contributions</title></rect>
    <rect x="156" y="16" width="10" height="10" fill="#0e4429" rx="2"><title>2025-07-07: 2 contributions</title></rect>
    <rect x="156" y="29" width="10" height="10" fill="#39d353" rx="2"><title>2025-07-08: 21 contributions</title></rect>
    <rect x="156" y="42" width="10" height="10" fill="#39d353" rx="2"><title>2025-07-09: 17 contributions</title></rect>
    <rect x="156" y="55" width="10" height="10" fill="#161b22" rx="2"><title>2025-07-10: 0 contributions</title></rect>
    <rect x="156" y="68" width="10" height="10" fill="#161b22" rx="2"><title>2025-07-11: 0 contributions</title></rect>
    <rect x="156" y="81" width="10" height="10" fill="#161b22" rx="2"><title>2025-07-12: 0 contributions</title></rect>
    <rect x="156" y="94" width="10" height="10" fill="#161b22" rx="2"><title>2025-07-13: 0 contributions</title></rect>
    <rect x="169" y="16" width="10" height="10" fill="#161b22" rx="2"><title>2025-07-14: 0 contributions</title></rect>
    <rect x="169" y="29" width="10" height="10" fill="#0e4429" rx="2"><title>2025-07-15: 2 contributions</title></rect>
    <rect x="169" y="42" width="10" height="10" fill="#161b22" rx="2"><title>2025-07-16: 0 contributions</title></rect>
    <rect x="169" y="55" width="10" height="10" fill="#0e4429" rx="2"><title>2025-07-17: 1 contributions</title></rect>
    <rect x="169" y="68" width="10" height="10" fill="#161b22" rx="2"><title>2025-07-18: 0 contributions</title></rect>
    <rect x="169" y="81" width="10" height="10" fill="#161b22" rx="2"><title>2025-07-19: 0 contributions</title></rect>
    <rect x="169" y="94" width="10" height="10" fill="#161b22" rx="2"><title>2025-07-20: 0 contributions</title></rect>
    <rect x="182" y="16" width="10" height="10" fill="#161b22" rx="2"><title>2025-07-21: 0 contributions</title></rect>
    <rect x="182" y="29" width="10" height="10" fill="#161b22" rx="2"><title>2025-07-22: 0 contributions</title></rect>
    <rect x="182" y="42" width="10" height="10" fill="#161b22" rx="2"><title>2025-07-23: 0 contributions</title></rect>
    <rect x="182" y="55" width="10" height="10" fill="#161b22" rx="2"><title>2025-07-24: 0 contributions</title></rect>
    <rect x="182" y="68" width="10" height="10" fill="#0e4429" rx="2"><title>2025-07-25: 1 contributions</title></rect>
    <rect x="182" y="81" width="10" height="10" fill="#006d32" rx="2"><title>2025-07-26: 4 contributions</title></rect>
    <rect x="182" y="94" width="10" height="10" fill="#161b22" rx="2"><title>2025-07-27: 0 contributions</title></rect>
    <rect x="195" y="16" width="10" height="10" fill="#0e4429" rx="2"><title>2025-07-28: 2 contributions</title></rect>
    <rect x="195" y="29" width="10" height="10" fill="#161b22" rx="2"><title>2025-07-29: 0 contributions</title></rect>
    <rect x="195" y="42" width="10" height="10" fill="#0e4429" rx="2"><title>2025-07-30: 2 contributions</title></rect>
    <rect x="195" y="55" width="10" height="10" fill="#161b22" rx="2"><title>2025-07-31: 0 contributions</title></rect>
    <rect x="195" y="68" width="10" height="10" fill="#26a641" rx="2"><title>2025-08-01: 7 contributions</title></rect>
    <rect x="195" y="81" width="10" height="10" fill="#161b22" rx="2"><title>2025-08-02: 0 contributions</title></rect>
    <rect x="195" y="94" width="10" height="10" fill="#161b22" rx="2"><title>2025-08-03: 0 contributions</title></rect>
    <rect x="208" y="16" width="10" height="10" fill="#006d32" rx="2"><title>2025-08-04: 6 contributions</title></rect>
    <rect x="208" y="29" width="10" height="10" fill="#0e4429" rx="2"><title>2025-08-05: 3 contributions</title></rect>
    <rect x="208" y="42" width="10" height="10" fill="#161b22" rx="2"><title>2025-08-06: 0 contributions</title></rect>
    <rect x="208" y="55" width="10" height="10" fill="#161b22" rx="2"><title>2025-08-07: 0 contributions</title></rect>
    <rect x="208" y="68" width="10" height="10" fill="#161b22" rx="2"><title>2025-08-08: 0 contributions</title></rect>
    <rect x="208" y="81" width="10" height="10" fill="#161b22" rx="2"><title>2025-08-09: 0 contributions</title></rect>
    <rect x="208" y="94" width="10" height="10" fill="#0e4429" rx="2"><title>2025-08-10: 2 contributions</title></rect>
    <rect x="221" y="16" width="10" height="10" fill="#161b22" rx="2"><title>2025-08-11: 0 contributions</title></rect>
    <rect x="221" y="29" width="10" height="10" fill="#0e4429" rx="2"><title>2025-08-12: 2 contributions</title></rect>
    <rect x="221" y="42" width="10" height="10" fill="#161b22" rx="2"><title>2025-08-13: 0 contributions</title></rect>
    <rect x="221" y="55" width="10" height="10" fill="#161b22" rx="2"><title>2025-08-14: 0 contributions</title></rect>
    <rect x="221" y="68" width="10" height="10" fill="#161b22" rx="2"><title>2025-08-15: 0 contributions</title></rect>
    <rect x="221" y="81" width="10" height="10" fill="#161b22" rx="2"><title>2025-08-16: 0 contributions</title></rect>
    <rect x="221" y="94" width="10" height="10" fill="#006d32" rx="2"><title>2025-08-17: 4 contributions</title></rect>
    <rect x="234" y="16" width="10" height="10" fill="#161b22" rx="2"><title>2025-08-18: 0 contributions</title></rect>
    <rect x="234" y="29" width="10" height="10" fill="#161b22" rx="2"><title>2025-08-19: 0 contributions</title></rect>
    <rect x="234" y="42" width="10" height="10" fill="#161b22" rx="2"><title>2025-08-20: 0 contributions</title></rect>
    <rect x="234" y="55" width="10" height="10" fill="#161b22" rx="2"><title>2025-08-21: 0 contributions</title></rect>
    <rect x="234" y="68" width="10" height="10" fill="#161b22" rx="2"><title>2025-08-22: 0 contributions</title></rect>
    <rect x="234" y="81" width="10" height="10" fill="#161b22" rx="2"><title>2025-08-23: 0 contributions</title></rect>
    <rect x="234" y="94" width="10" height="10" fill="#161b22" rx="2"><title>2025-08-24: 0 contributions</title></rect>
    <rect x="247" y="16" width="10" height="10" fill="#161b22" rx="2"><title>2025-08-25: 0 contributions</title></rect>
    <rect x="247" y="29" width="10" height="10" fill="#161b22" rx="2"><title>2025-08-26: 0 contributions</title></rect>
    <rect x="247" y="42" width="10" height="10" fill="#39d353" rx="2"><title>2025-08-27: 24 contributions</title></rect>
    <rect x="247" y="55" width="10" height="10" fill="#39d353" rx="2"><title>2025-08-28: 19 contributions</title></rect>
    <rect x="247" y="68" width="10" height="10" fill="#0e4429" rx="2"><title>2025-08-29: 2 contributions</title></rect>
    <rect x="247" y="81" width="10" height="10" fill="#161b22" rx="2"><title>2025-08-30: 0 contributions</title></rect>
    <rect x="247" y="94" width="10" height="10" fill="#0e4429" rx="2"><title>2025-08-31: 1 contributions</title></rect>
    <rect x="260" y="16" width="10" height="10" fill="#161b22" rx="2"><title>2025-09-01: 0 contributions</title></rect>
    <rect x="260" y="29" width="10" height="10" fill="#161b22" rx="2"><title>2025-09-02: 0 contributions</title></rect>
    <rect x="260" y="42" width="10" height="10" fill="#26a641" rx="2"><title>2025-09-03: 7 contributions</title></rect>
    <rect x="260" y="55" width="10" height="10" fill="#0e4429" rx="2"><title>2025-09-04: 2 contributions</title></rect>
    <rect x="260" y="68" width="10" height="10" fill="#0e4429" rx="2"><title>2025-09-05: 1 contributions</title></rect>
    <rect x="260" y="81" width="10" height="10" fill="#161b22" rx="2"><title>2025-09-06: 0 contributions</title></rect>
    <rect x="260" y="94" width="10" height="10" fill="#161b22" rx="2"><title>2025-09-07: 0 contributions</title></rect>
    <rect x="273" y="16" width="10" height="10" fill="#161b22" rx="2"><title>2025-09-08: 0 contributions</title></rect>
    <rect x="273" y="29" width="10" height="10" fill="#0e4429" rx="2"><title>2025-09-09: 1 contributions</title></rect>
    <rect x="273" y="42" width="10" height="10" fill="#161b22" rx="2"><title>2025-09-10: 0 contributions</title></rect>
    <rect x="273" y="55" width="10" height="10" fill="#161b22" rx="2"><title>2025-09-11: 0 contributions</title></rect>
    <rect x="273" y="68" width="10" height="10" fill="#161b22" rx="2"><title>2025-09-12: 0 contributions</title></rect>
    <rect x="273" y="81" width="10" height="10" fill="#0e4429" rx="2"><title>2025-09-13: 2 contributions</title></rect>
    <rect x="273" y="94" width="10" height="10" fill="#0e4429" rx="2"><title>2025-09-14: 2 contributions</title></rect>
    <rect x="286" y="16" width="10" height="10" fill="#161b22" rx="2"><title>2025-09-15: 0 contributions</title></rect>
    <rect x="286" y="29" width="10" height="10" fill="#0e4429" rx="2"><title>2025-09-16: 1 contributions</title></rect>
    <rect x="286" y="42" width="10" height="10" fill="#0e4429" rx="2"><title>2025-09-17: 2 contributions</title></rect>
    <rect x="286" y="55" width="10" height="10" fill="#26a641" rx="2"><title>2025-09-18: 8 contributions</title></rect>
    <rect x="286" y="68" width="10" height="10" fill="#0e4429" rx="2"><title>2025-09-19: 1 contributions</title></rect>
    <rect x="286" y="81" width="10" height="10" fill="#161b22" rx="2"><title>2025-09-20: 0 contributions</title></rect>
    <rect x="286" y="94" width="10" height="10" fill="#161b22" rx="2"><title>2025-09-21: 0 contributions</title></rect>
    <rect x="299" y="16" width="10" height="10" fill="#161b22" rx="2"><title>2025-09-22: 0 contributions</title></rect>
    <rect x="299" y="29" width="10" height="10" fill="#161b22" rx="2"><title>2025-09-23: 0 contributions</title></rect>
    <rect x="299" y="42" width="10" height="10" fill="#161b22" rx="2"><title>2025-09-24: 0 contributions</title></rect>
    <rect x="299" y="55" width="10" height="10" fill="#161b22" rx="2"><title>2025-09-25: 0 contributions</title></rect>
    <rect x="299" y="68" width="10" height="10" fill="#161b22" rx="2"><title>2025-09-26: 0 contributions</title></rect>
    <rect x="299" y="81" width="10" height="10" fill="#161b22" rx="2"><title>2025-09-27: 0 contributions</title></rect>
    <rect x="299" y="94" width="10" height="10" fill="#006d32" rx="2"><title>2025-09-28: 6 contributions</title></rect>
    <rect x="312" y="16" width="10" height="10" fill="#0e4429" rx="2"><title>2025-09-29: 2 contributions</title></rect>
    <rect x="312" y="29" width="10" height="10" fill="#161b22" rx="2"><title>2025-09-30: 0 contributions</title></rect>
    <rect x="312" y="42" width="10" height="10" fill="#161b22" rx="2"><title>2025-10-01: 0 contributions</title></rect>
    <rect x="312" y="55" width="10" height="10" fill="#0e4429" rx="2"><title>2025-10-02: 1 contributions</title></rect>
    <rect x="312" y="68" width="10" height="10" fill="#39d353" rx="2"><title>2025-10-03: 10 contributions</title></rect>
    <rect x="312" y="81" width="10" height="10" fill="#0e4429" rx="2"><title>2025-10-04: 2 contributions</title></rect>
    <rect x="312" y="94" width="10" height="10" fill="#161b22" rx="2"><title>2025-10-05: 0 contributions</title></rect>
    <rect x="325" y="16" width="10" height="10" fill="#161b22" rx="2"><title>2025-10-06: 0 contributions</title></rect>
    <rect x="325" y="29" width="10" height="10" fill="#161b22" rx="2"><title>2025-10-07: 0 contributions</title></rect>
    <rect x="325" y="42" width="10" height="10" fill="#006d32" rx="2"><title>2025-10-08: 4 contributions</title></rect>
    <rect x="325" y="55" width="10" height="10" fill="#161b22" rx="2"><title>2025-10-09: 0 contributions</title></rect>
    <rect x="325" y="68" width="10" height="10" fill="#0e4429" rx="2"><title>2025-10-10: 1 contributions</title></rect>
    <rect x="325" y="81" width="10" height="10" fill="#161b22" rx="2"><title>2025-10-11: 0 contributions</title></rect>
    <rect x="325" y="94" width="10" height="10" fill="#161b22" rx="2"><title>2025-10-12: 0 contributions</title></rect>
    <rect x="338" y="16" width="10" height="10" fill="#161b22" rx="2"><title>2025-10-13: 0 contributions</title></rect>
    <rect x="338" y="29" width="10" height="10" fill="#26a641" rx="2"><title>2025-10-14: 9 contributions</title></rect>
    <rect x="338" y="42" width="10" height="10" fill="#0e4429" rx="2"><title>2025-10-15: 3 contributions</title></rect>
    <rect x="338" y="55" width="10" height="10" fill="#0e4429" rx="2"><title>2025-10-16: 1 contributions</title></rect>
    <rect x="338" y="68" width="10" height="10" fill="#0e4429" rx="2"><title>2025-10-17: 2 contributions</title></rect>
    <rect x="338" y="81" width="10" height="10" fill="#006d32" rx="2"><title>2025-10-18: 4 contributions</title></rect>
    <rect x="338" y="94" width="10" height="10" fill="#161b22" rx="2"><title>2025-10-19: 0 contributions</title></rect>
    <rect x="351" y="16" width="10" height="10" fill="#0e4429" rx="2"><title>2025-10-20: 2 contributions</title></rect>
    <rect x="351" y="29" width="10" height="10" fill="#26a641" rx="2"><title>2025-10-21: 7 contributions</title></rect>
    <rect x="351" y="42" width="10" height="10" fill="#161b22" rx="2"><title>2025-10-22: 0 contributions</title></rect>
    <rect x="351" y="55" width="10" height="10" fill="#161b22" rx="2"><title>2025-10-23: 0 contributions</title></rect>
    <rect x="351" y="68" width="10" height="10" fill="#006d32" rx="2"><title>2025-10-24: 4 contributions</title></rect>
    <rect x="351" y="81" width="10" height="10" fill="#39d353" rx="2"><title>2025-10-25: 16 contributions</title></rect>
    <rect x="351" y="94" width="10" height="10" fill="#161b22" rx="2"><title>2025-10-26: 0 contributions</title></rect>
    <rect x="364" y="16" width="10" height="10" fill="#161b22" rx="2"><title>2025-10-27: 0 contributions</title></rect>
    <rect x="364" y="29" width="10" height="10" fill="#0e4429" rx="2"><title>2025-10-28: 1 contributions</title></rect>
    <rect x="364" y="42" width="10" height="10" fill="#006d32" rx="2"><title>2025-10-29: 5 contributions</title></rect>
    <rect x="364" y="55" width="10" height="10" fill="#161b22" rx="2"><title>2025-10-30: 0 contributions</title></rect>
    <rect x="364" y="68" width="10" height="10" fill="#161b22" rx="2"><title>2025-10-31: 0 contributions</title></rect>
    <rect x="364" y="81" width="10" height="10" fill="#0e4429" rx="2"><title>2025-11-01: 1 contributions</title></rect>
    <rect x="364" y="94" width="10" height="10" fill="#161b22" rx="2"><title>2025-11-02: 0 contributions</title></rect>
    <rect x="377" y="16" width="10" height="10" fill="#39d353" rx="2"><title>2025-11-03: 20 contributions</title></rect>
    <rect x="377" y="29" width="10" height="10" fill="#161b22" rx="2"><title>2025-11-04: 0 contributions</title></rect>
    <rect x="377" y="42" width="10" height="10" fill="#161b22" rx="2"><title>2025-11-05: 0 contributions</title></rect>
    <rect x="377" y="55" width="10" height="10" fill="#161b22" rx="2"><title>2025-11-06: 0 contributions</title></rect>
    <rect x="377" y="68" width="10" height="10" fill="#161b22" rx="2"><title>2025-11-07: 0 contributions</title></rect>
    <rect x="377" y="81" width="10" height="10" fill="#0e4429" rx="2"><title>2025-11-08: 1 contributions</title></rect>
    <rect x="377" y="94" width="10" height="10" fill="#161b22" rx="2"><title>2025-11-09: 0 contributions</title></rect>
    <rect x="390" y="16" width="10" height="10" fill="#0e4429" rx="2"><title>2025-11-10: 2 contributions</title></rect>
    <rect x="390" y="29" width="10" height="10" fill="#39d353" rx="2"><title>2025-11-11: 13 contributions</title></rect>
    <rect x="390" y="42" width="10" height="10" fill="#0e4429" rx="2"><title>2025-11-12: 3 contributions</title></rect>
    <rect x="390" y="55" width="10" height="10" fill="#26a641" rx="2"><title>2025-11-13: 8 contributions</title></rect>
    <rect x="390" y="68" width="10" height="10" fill="#161b22" rx="2"><title>2025-11-14: 0 contributions</title></rect>
    <rect x="390" y="81" width="10" height="10" fill="#0e4429" rx="2"><title>2025-11-15: 1 contributions</title></rect>
    <rect x="390" y="94" width="10" height="10" fill="#161b22" rx="2"><title>2025-11-16: 0 contributions</title></rect>
    <rect x="403" y="16" width="10" height="10" fill="#0e4429" rx="2"><title>2025-11-17: 1 contributions</title></rect>
    <rect x="403" y="29" width="10" height="10" fill="#161b22" rx="2"><title>2025-11-18: 0 contributions</title></rect>
    <rect x="403" y="42" width="10" height="10" fill="#006d32" rx="2"><title>2025-11-19: 6 contributions</title></rect>
    <rect x="403" y="55" width="10" height="10" fill="#0e4429" rx="2"><title>2025-11-20: 1 contributions</title></rect>
    <rect x="403" y="68" width="10" height="10" fill="#161b22" rx="2"><title>2025-11-21: 0 contributions</title></rect>
    <rect x="403" y="81" width="10" height="10" fill="#161b22" rx="2"><title>2025-11-22: 0 contributions</title></rect>
    <rect x="403" y="94" width="10" height="10" fill="#006d32" rx="2"><title>2025-11-23: 5 contributions</title></rect>
    <rect x="416" y="16" width="10" height="10" fill="#0e4429" rx="2"><title>2025-11-24: 1 contributions</title></rect>
    <rect x="416" y="29" width="10" height="10" fill="#0e4429" rx="2"><title>2025-11-25: 1 contributions</title></rect>
    <rect x="416" y="42" width="10" height="10" fill="#161b22" rx="2"><title>2025-11-26: 0 contributions</title></rect>
    <rect x="416" y="55" width="10" height="10" fill="#26a641" rx="2"><title>2025-11-27: 9 contributions</title></rect>
    <rect x="416" y="68" width="10" height="10" fill="#0e4429" rx="2"><title>2025-11-28: 1 contributions</title></rect>
    <rect x="416" y="81" width="10" height="10" fill="#161b22" rx="2"><title>2025-11-29: 0 contributions</title></rect>
    <rect x="416" y="94" width="10" height="10" fill="#161b22" rx="2"><title>2025-11-30: 0 contributions</title></rect>
    <rect x="429" y="16" width="10" height="10" fill="#161b22" rx="2"><title>2025-12-01: 0 contributions</title></rect>
    <rect x="429" y="29" width="10" height="10" fill="#0e4429" rx="2"><title>2025-12-02: 1 contributions</title></rect>
    <rect x="429" y="42" width="10" height="10" fill="#161b22" rx="2"><title>2025-12-03: 0 contributions</title></rect>
    <rect x="429" y="55" width="10" height="10" fill="#006d32" rx="2"><title>2025-12-04: 5 contributions</title></rect>
    <rect x="429" y="68" width="10" height="10" fill="#0e4429" rx="2"><title>2025-12-05: 1 contributions</title></rect>
    <rect x="429" y="81" width="10" height="10" fill="#161b22" rx="2"><title>2025-12-06: 0 contributions</title></rect>
    <rect x="429" y="94" width="10" height="10" fill="#161b22" rx="2"><title>2025-12-07: 0 contributions</title></rect>
    <rect x="442" y="16" width="10" height="10" fill="#0e4429" rx="2"><title>2025-12-08: 1 contributions</title></rect>
    <rect x="442" y="29" width="10" height="10" fill="#0e4429" rx="2"><title>2025-12-09: 2 contributions</title></rect>
    <rect x="442" y="42" width="10" height="10" fill="#0e4429" rx="2"><title>2025-12-10: 1 contributions</title></rect>
    <rect x="442" y="55" width="10" height="10" fill="#161b22" rx="2"><title>2025-12-11: 0 contributions</title></rect>
    <rect x="442" y="68" width="10" height="10" fill="#161b22" rx="2"><title>2025-12-12: 0 contributions</title></rect>
    <rect x="442" y="81" width="10" height="10" fill="#0e4429" rx="2"><title>2025-12-13: 1 contributions</title></rect>
    <rect x="442" y="94" width="10" height="10" fill="#0e4429" rx="2"><title>2025-12-14: 2 contributions</title></rect>
    <rect x="455" y="16" width="10" height="10" fill="#161b22" rx="2"><title>2025-12-15: 0 contributions</title></rect>
    <rect x="455" y="29" width="10" height="10" fill="#0e4429" rx="2"><title>2025-12-16: 3 contributions</title></rect>
    <rect x="455" y="42" width="10" height="10" fill="#161b22" rx="2"><title>2025-12-17: 0 contributions</title></rect>
    <rect x="455" y="55" width="10" height="10" fill="#161b22" rx="2"><title>2025-12-18: 0 contributions</title></rect>
    <rect x="455" y="68" width="10" height="10" fill="#0e4429" rx="2"><title>2025-12-19: 1 contributions</title></rect>
    <rect x="455" y="81" width="10" height="10" fill="#0e4429" rx="2"><title>2025-12-20: 1 contributions</title></rect>
    <rect x="455" y="94" width="10" height="10" fill="#161b22" rx="2"><title>2025-12-21: 0 contributions</title></rect>
    <rect x="468" y="16" width="10" height="10" fill="#161b22" rx="2"><title>2025-12-22: 0 contributions</title></rect>
    <rect x="468" y="29" width="10" height="10" fill="#161b22" rx="2"><title>2025-12-23: 0 contributions</title></rect>
    <rect x="468" y="42" width="10" height="10" fill="#0e4429" rx="2"><title>2025-12-24: 1 contributions</title></rect>
    <rect x="468" y="55" width="10" height="10" fill="#161b22" rx="2"><title>2025-12-25: 0 contributions</title></rect>
    <rect x="468" y="68" width="10" height="10" fill="#161b22" rx="2"><title>2025-12-26: 0 contributions</title></rect>
    <rect x="468" y="81" width="10" height="10" fill="#161b22" rx="2"><title>2025-12-27: 0 contributions</title></rect>
    <rect x="468" y="94" width="10" height="10" fill="#161b22" rx="2"><title>2025-12-28: 0 contributions</title></rect>
    <rect x="481" y="16" width="10" height="10" fill="#161b22" rx="2"><title>2025-12-29: 0 contributions</title></rect>
    <rect x="481" y="29" width="10" height="10" fill="#161b22" rx="2"><title>2025-12-30: 0 contributions</title></rect>
    <rect x="481" y="42" width="10" height="10" fill="#161b22" rx="2"><title>2025-12-31: 0 contributions</title></rect>
    <rect x="481" y="55" width="10" height="10" fill="#161b22" rx="2"><title>2026-01-01: 0 contributions</title></rect>
    <rect x="481" y="68" width="10" height="10" fill="#161b22" rx="2"><title>2026-01-02: 0 contributions</title></rect>
    <rect x="481" y="81" width="10" height="10" fill="#161b22" rx="2"><title>2026-01-03: 0 contributions</title></rect>
    <rect x="481" y="94" width="10" height="10" fill="#161b22" rx="2"><title>2026-01-04: 0 contributions</title></rect>
    <rect x="494" y="16" width="10" height="10" fill="#006d32" rx="2"><title>2026-01-05: 6 contributions</title></rect>
    <rect x="494" y="29" width="10" height="10" fill="#0e4429" rx="2"><title>2026-01-06: 2 contributions</title></rect>
    <rect x="494" y="42" width="10" height="10" fill="#161b22" rx="2"><title>2026-01-07: 0 contributions</title></rect>
    <rect x="494" y="55" width="10" height="10" fill="#161b22" rx="2"><title>2026-01-08: 0 contributions</title></rect>
    <rect x="494" y="68" width="10" height="10" fill="#161b22" rx="2"><title>2026-01-09: 0 contributions</title></rect>
    <rect x="494" y="81" width="10" height="10" fill="#161b22" rx="2"><title>2026-01-10: 0 contributions</title></rect>
    <rect x="494" y="94" width="10" height="10" fill="#161b22" rx="2"><title>2026-01-11: 0 contributions</title></rect>
    <rect x="507" y="16" width="10" height="10" fill="#0e4429" rx="2"><title>2026-01-12: 1 contributions</title></rect>
    <rect x="507" y="29" width="10" height="10" fill="#161b22" rx="2"><title>2026-01-13: 0 contributions</title></rect>
    <rect x="507" y="42" width="10" height="10" fill="#161b22" rx="2"><title>2026-01-14: 0 contributions</title></rect>
    <rect x="507" y="55" width="10" height="10" fill="#161b22" rx="2"><title>2026-01-15: 0 contributions</title></rect>
    <rect x="507" y="68" width="10" height="10" fill="#0e4429" rx="2"><title>2026-01-16: 2 contributions</title></rect>
    <rect x="507" y="81" width="10" height="10" fill="#0e4429" rx="2"><title>2026-01-17: 2 contributions</title></rect>
    <rect x="507" y="94" width="10" height="10" fill="#161b22" rx="2"><title>2026-01-18: 0 contributions</title></rect>
    <rect x="520" y="16" width="10" height="10" fill="#0e4429" rx="2"><title>2026-01-19: 1 contributions</title></rect>
    <rect x="520" y="29" width="10" height="10" fill="#161b22" rx="2"><title>2026-01-20: 0 contributions</title></rect>
    <rect x="520" y="42" width="10" height="10" fill="#161b22" rx="2"><title>2026-01-21: 0 contributions</title></rect>
    <rect x="520" y="55" width="10" height="10" fill="#161b22" rx="2"><title>2026-01-22: 0 contributions</title></rect>
    <rect x="520" y="68" width="10" height="10" fill="#161b22" rx="2"><title>2026-01-23: 0 contributions</title></rect>
    <rect x="520" y="81" width="10" height="10" fill="#161b22" rx="2"><title>2026-01-24: 0 contributions</title></rect>
    <rect x="520" y="94" width="10" height="10" fill="#161b22" rx="2"><title>2026-01-25: 0 contributions</title></rect>
    <rect x="533" y="16" width="10" height="10" fill="#161b22" rx="2"><title>2026-01-26: 0 contributions</title></rect>
    <rect x="533" y="29" width="10" height="10" fill="#0e4429" rx="2"><title>2026-01-27: 1 contributions</title></rect>
    <rect x="533" y="42" width="10" height="10" fill="#161b22" rx="2"><title>2026-01-28: 0 contributions</title></rect>
    <rect x="533" y="55" width="10" height="10" fill="#161b22" rx="2"><title>2026-01-29: 0 contributions</title></rect>
    <rect x="533" y="68" width="10" height="10" fill="#161b22" rx="2"><title>2026-01-30: 0 contributions</title></rect>
    <rect x="533" y="81" width="10" height="10" fill="#161b22" rx="2"><title>2026-01-31: 0 contributions</title></rect>
    <rect x="533" y="94" width="10" height="10" fill="#161b22" rx="2"><title>2026-02-01: 0 contributions</title></rect>
    <rect x="546" y="16" width="10" height="10" fill="#0e4429" rx="2"><title>2026-02-02: 1 contributions</title></rect>
    <rect x="546" y="29" width="10" height="10" fill="#0e4429" rx="2"><title>2026-02-03: 1 contributions</title></rect>
    <rect x="546" y="42" width="10" height="10" fill="#161b22" rx="2"><title>2026-02-04: 0 contributions</title></rect>
    <rect x="546" y="55" width="10" height="10" fill="#161b22" rx="2"><title>2026-02-05: 0 contributions</title></rect>
    <rect x="546" y="68" width="10" height="10" fill="#161b22" rx="2"><title>2026-02-06: 0 contributions</title></rect>
    <rect x="546" y="81" width="10" height="10" fill="#161b22" rx="2"><title>2026-02-07: 0 contributions</title></rect>
    <rect x="546" y="94" width="10" height="10" fill="#161b22" rx="2"><title>2026-02-08: 0 contributions</title></rect>
    <rect x="559" y="16" width="10" height="10" fill="#0e4429" rx="2"><title>2026-02-09: 1 contributions</title></rect>
    <rect x="559" y="29" width="10" height="10" fill="#161b22" rx="2"><title>2026-02-10: 0 contributions</title></rect>
    <rect x="559" y="42" width="10" height="10" fill="#0e4429" rx="2"><title>2026-02-11: 1 contributions</title></rect>
    <rect x="559" y="55" width="10" height="10" fill="#0e4429" rx="2"><title>2026-02-12: 1 contributions</title></rect>
    <rect x="559" y="68" width="10" height="10" fill="#161b22" rx="2"><title>2026-02-13: 0 contributions</title></rect>
    <rect x="559" y="81" width="10" height="10" fill="#0e4429" rx="2"><title>2026-02-14: 1 contributions</title></rect>
    <rect x="559" y="94" width="10" height="10" fill="#161b22" rx="2"><title>2026-02-15: 0 contributions</title></rect>
    <rect x="572" y="16" width="10" height="10" fill="#161b22" rx="2"><title>2026-02-16: 0 contributions</title></rect>
    <rect x="572" y="29" width="10" height="10" fill="#006d32" rx="2"><title>2026-02-17: 4 contributions</title></rect>
    <rect x="572" y="42" width="10" height="10" fill="#0e4429" rx="2"><title>2026-02-18: 1 contributions</title></rect>
    <rect x="572" y="55" width="10" height="10" fill="#161b22" rx="2"><title>2026-02-19: 0 contributions</title></rect>
    <rect x="572" y="68" width="10" height="10" fill="#0e4429" rx="2"><title>2026-02-20: 1 contributions</title></rect>
    <rect x="572" y="81" width="10" height="10" fill="#161b22" rx="2"><title>2026-02-21: 0 contributions</title></rect>
    <rect x="572" y="94" width="10" height="10" fill="#161b22" rx="2"><title>2026-02-22: 0 contributions</title></rect>
    <rect x="585" y="16" width="10" height="10" fill="#0e4429" rx="2"><title>2026-02-23: 3 contributions</title></rect>
    <rect x="585" y="29" width="10" height="10" fill="#0e4429" rx="2"><title>2026-02-24: 1 contributions</title></rect>
    <rect x="585" y="42" width="10" height="10" fill="#006d32" rx="2"><title>2026-02-25: 6 contributions</title></rect>
    <rect x="585" y="55" width="10" height="10" fill="#161b22" rx="2"><title>2026-02-26: 0 contributions</title></rect>
    <rect x="585" y="68" width="10" height="10" fill="#161b22" rx="2"><title>2026-02-27: 0 contributions</title></rect>
    <rect x="585" y="81" width="10" height="10" fill="#161b22" rx="2"><title>2026-02-28: 0 contributions</title></rect>
    <rect x="585" y="94" width="10" height="10" fill="#161b22" rx="2"><title>2026-03-01: 0 contributions</title></rect>
    <rect x="598" y="16" width="10" height="10" fill="#161b22" rx="2"><title>2026-03-02: 0 contributions</title></rect>
    <rect x="598" y="29" width="10" height="10" fill="#0e4429" rx="2"><title>2026-03-03: 1 contributions</title></rect>
    <rect x="598" y="42" width="10" height="10" fill="#161b22" rx="2"><title>2026-03-04: 0 contributions</title></rect>
    <rect x="598" y="55" width="10" height="10" fill="#161b22" rx="2"><title>2026-03-05: 0 contributions</title></rect>
    <rect x="598" y="68" width="10" height="10" fill="#0e4429" rx="2"><title>2026-03-06: 1 contributions</title></rect>
    <rect x="598" y="81" width="10" height="10" fill="#161b22" rx="2"><title>2026-03-07: 0 contributions</title></rect>
    <rect x="598" y="94" width="10" height="10" fill="#161b22" rx="2"><title>2026-03-08: 0 contributions</title></rect>
    <rect x="611" y="16" width="10" height="10" fill="#161b22" rx="2"><title>2026-03-09: 0 contributions</title></rect>
    <rect x="611" y="29" width="10" height="10" fill="#0e4429" rx="2"><title>2026-03-10: 1 contributions</title></rect>
    <rect x="611" y="42" width="10" height="10" fill="#006d32" rx="2"><title>2026-03-11: 6 contributions</title></rect>
    <rect x="611" y="55" width="10" height="10" fill="#0e4429" rx="2"><title>2026-03-12: 2 contributions</title></rect>
    <rect x="611" y="68" width="10" height="10" fill="#161b22" rx="2"><title>2026-03-13: 0 contributions</title></rect>
    <rect x="611" y="81" width="10" height="10" fill="#006d32" rx="2"><title>2026-03-14: 4 contributions</title></rect>
    <rect x="611" y="94" width="10" height="10" fill="#161b22" rx="2"><title>2026-03-15: 0 contributions</title></rect>
    <rect x="624" y="16" width="10" height="10" fill="#161b22" rx="2"><title>2026-03-16: 0 contributions</title></rect>
    <rect x="624" y="29" width="10" height="10" fill="#161b22" rx="2"><title>2026-03-17: 0 contributions</title></rect>
    <rect x="624" y="42" width="10" height="10" fill="#26a641" rx="2"><title>2026-03-18: 7 contributions</title></rect>
    <rect x="624" y="55" width="10" height="10" fill="#0e4429" rx="2"><title>2026-03-19: 1 contributions</title></rect>
    <rect x="624" y="68" width="10" height="10" fill="#161b22" rx="2"><title>2026-03-20: 0 contributions</title></rect>
    <rect x="624" y="81" width="10" height="10" fill="#161b22" rx="2"><title>2026-03-21: 0 contributions</title></rect>
    <rect x="624" y="94" width="10" height="10" fill="#161b22" rx="2"><title>2026-03-22: 0 contributions</title></rect>
    <rect x="637" y="16" width="10" height="10" fill="#161b22" rx="2"><title>2026-03-23: 0 contributions</title></rect>
    <rect x="637" y="29" width="10" height="10" fill="#161b22" rx="2"><title>2026-03-24: 0 contributions</title></rect>
    <rect x="637" y="42" width="10" height="10" fill="#161b22" rx="2"><title>2026-03-25: 0 contributions</title></rect>
    <rect x="637" y="55" width="10" height="10" fill="#161b22" rx="2"><title>2026-03-26: 0 contributions</title></rect>
    <rect x="637" y="68" width="10" height="10" fill="#161b22" rx="2"><title>2026-03-27: 0 contributions</title></rect>
    <rect x="637" y="81" width="10" height="10" fill="#161b22" rx="2"><title>2026-03-28: 0 contributions</title></rect>
    <rect x="637" y="94" width="10" height="10" fill="#26a641" rx="2"><title>2026-03-29: 7 contributions</title></rect>
    <rect x="650" y="16" width="10" height="10" fill="#0e4429" rx="2"><title>2026-03-30: 3 contributions</title></rect>
    <rect x="650" y="29" width="10" height="10" fill="#0e4429" rx="2"><title>2026-03-31: 1 contributions</title></rect>
    <rect x="650" y="42" width="10" height="10" fill="#0e4429" rx="2"><title>2026-04-01: 1 contributions</title></rect>
    <rect x="650" y="55" width="10" height="10" fill="#161b22" rx="2"><title>2026-04-02: 0 contributions</title></rect>
    <rect x="650" y="68" width="10" height="10" fill="#0e4429" rx="2"><title>2026-04-03: 1 contributions</title></rect>
    <rect x="650" y="81" width="10" height="10" fill="#161b22" rx="2"><title>2026-04-04: 0 contributions</title></rect>
    <rect x="650" y="94" width="10" height="10" fill="#161b22" rx="2"><title>2026-04-05: 0 contributions</title></rect>
    <rect x="663" y="16" width="10" height="10" fill="#161b22" rx="2"><title>2026-04-06: 0 contributions</title></rect>
    <rect x="663" y="29" width="10" height="10" fill="#0e4429" rx="2"><title>2026-04-07: 2 contributions</title></rect>
    <rect x="663" y="42" width="10" height="10" fill="#161b22" rx="2"><title>2026-04-08: 0 contributions</title></rect>
    <rect x="663" y="55" width="10" height="10" fill="#006d32" rx="2"><title>2026-04-09: 4 contributions</title></rect>
    <rect x="663" y="68" width="10" height="10" fill="#26a641" rx="2"><title>2026-04-10: 7 contributions</title></rect>
    <rect x="663" y="81" width="10" height="10" fill="#006d32" rx="2"><title>2026-04-11: 4 contributions</title></rect>
    <rect x="663" y="94" width="10" height="10" fill="#161b22" rx="2"><title>2026-04-12: 0 contributions</title></rect>
    <rect x="676" y="16" width="10" height="10" fill="#0e4429" rx="2"><title>2026-04-13: 1 contributions</title></rect>
  </g>

  <!-- Legend -->
  <g transform="translate(629, 211)">
    <text x="0" y="10" fill="#c9d1d9" font-family="Arial, sans-serif" font-size="9">Less</text>
    <rect x="30" y="0" width="10" height="10" fill="#161b22" rx="2"/>
    <rect x="43" y="0" width="10" height="10" fill="#0e4429" rx="2"/>
    <rect x="56" y="0" width="10" height="10" fill="#006d32" rx="2"/>
    <rect x="69" y="0" width="10" height="10" fill="#26a641" rx="2"/>
    <rect x="82" y="0" width="10" height="10" fill="#39d353" rx="2"/>
    <text x="100" y="10" fill="#c9d1d9" font-family="Arial, sans-serif" font-size="9">More</text>
  </g>

</svg>