<svg width="829" height="185" xmlns="http://www.w3.org/2000/svg">
  <rect x="0.5" y="0.5" width="828" height="184" fill="#0d1117" rx="6" stroke="#30363d" stroke-width="1"/>

  <!-- Month labels (timeline above heatmap) -->
  <g transform="translate(50, 20)">
    <text x="5.0" y="14" fill="#c9d1d9" font-family="Arial, sans-serif" font-size="8" text-anchor="middle">Apr '25</text>
    <text x="5.0" y="14" fill="#c9d1d9" font-family="Arial, sans-serif" font-size="8" text-anchor="middle">May</text>
    <text x="57.0" y="14" fill="#c9d1d9" font-family="Arial, sans-serif" font-size="8" text-anchor="middle">Jun</text>
    <text x="122.0" y="14" fill="#c9d1d9" font-family="Arial, sans-serif" font-size="8" text-anchor="middle">Jul</text>
    <text x="174.0" y="14" fill="#c9d1d9" font-family="Arial, sans-serif" font-size="8" text-anchor="middle">Aug</text>
    <text x="239.0" y="14" fill="#c9d1d9" font-family="Arial, sans-serif" font-size="8" text-anchor="middle">Sep</text>
    <text x="291.0" y="14" fill="#c9d1d9" font-family="Arial, sans-serif" font-size="8" text-anchor="middle">Oct</text>
    <text x="343.0" y="14" fill="#c9d1d9" font-family="Arial, sans-serif" font-size="8" text-anchor="middle">Nov</text>
    <text x="408.0" y="14" fill="#c9d1d9" font-family="Arial, sans-serif" font-size="8" text-anchor="middle">Dec</text>
    <text x="460.0" y="14" fill="#c9d1d9" font-family="Arial, sans-serif" font-size="8" text-anchor="middle">Jan</text>
    <text x="512.0" y="14" fill="#c9d1d9" font-family="Arial, sans-serif" font-size="8" text-anchor="middle">Feb</text>
    <text x="564.0" y="14" fill="#c9d1d9" font-family="Arial, sans-serif" font-size="8" text-anchor="middle">Mar</text>
    <text x="629.0" y="14" fill="#c9d1d9" font-family="Arial, sans-serif" font-size="8" text-anchor="middle">Apr '26</text>
  </g>
  <g transform="translate(50, 38)">
    <text x="-25" y="10" fill="#c9d1d9" font-family="Arial, sans-serif" font-size="9">Mon</text>
    <text x="-25" y="36" fill="#c9d1d9" font-family="Arial, sans-serif" font-size="9">Wed</text>
    <text x="-25" y="62" fill="#c9d1d9" font-family="Arial, sans-serif" font-size="9">Fri</text>
    <rect x="0" y="0" width="10" height="10" fill="#161b22" rx="2"><title>2025-04-28: 0 events</title></rect>
    <rect x="0" y="13" width="10" height="10" fill="#161b22" rx="2"><title>2025-04-29: 0 events</title></rect>
    <rect x="0" y="26" width="10" height="10" fill="#0e4429" rx="2"><title>2025-04-30: 1 events</title></rect>
    <rect x="0" y="39" width="10" height="10" fill="#161b22" rx="2"><title>2025-05-01: 0 events</title></rect>
    <rect x="0" y="52" width="10" height="10" fill="#161b22" rx="2"><title>2025-05-02: 0 events</title></rect>
    <rect x="0" y="65" width="10" height="10" fill="#161b22" rx="2"><title>2025-05-03: 0 events</title></rect>
    <rect x="0" y="78" width="10" height="10" fill="#161b22" rx="2"><title>2025-05-04: 0 events</title></rect>
    <rect x="13" y="0" width="10" height="10" fill="#161b22" rx="2"><title>2025-05-05: 0 events</title></rect>
    <rect x="13" y="13" width="10" height="10" fill="#161b22" rx="2"><title>2025-05-06: 0 events</title></rect>
    <rect x="13" y="26" width="10" height="10" fill="#161b22" rx="2"><title>2025-05-07: 0 events</title></rect>
    <rect x="13" y="39" width="10" height="10" fill="#0e4429" rx="2"><title>2025-05-08: 3 events</title></rect>
    <rect x="13" y="52" width="10" height="10" fill="#39d353" rx="2"><title>2025-05-09: 11 events</title></rect>
    <rect x="13" y="65" width="10" height="10" fill="#161b22" rx="2"><title>2025-05-10: 0 events</title></rect>
    <rect x="13" y="78" width="10" height="10" fill="#26a641" rx="2"><title>2025-05-11: 7 events</title></rect>
    <rect x="26" y="0" width="10" height="10" fill="#161b22" rx="2"><title>2025-05-12: 0 events</title></rect>
    <rect x="26" y="13" width="10" height="10" fill="#006d32" rx="2"><title>2025-05-13: 5 events</title></rect>
    <rect x="26" y="26" width="10" height="10" fill="#006d32" rx="2"><title>2025-05-14: 4 events</title></rect>
    <rect x="26" y="39" width="10" height="10" fill="#0e4429" rx="2"><title>2025-05-15: 3 events</title></rect>
    <rect x="26" y="52" width="10" height="10" fill="#0e4429" rx="2"><title>2025-05-16: 1 events</title></rect>
    <rect x="26" y="65" width="10" height="10" fill="#161b22" rx="2"><title>2025-05-17: 0 events</title></rect>
    <rect x="26" y="78" width="10" height="10" fill="#161b22" rx="2"><title>2025-05-18: 0 events</title></rect>
    <rect x="39" y="0" width="10" height="10" fill="#006d32" rx="2"><title>2025-05-19: 6 events</title></rect>
    <rect x="39" y="13" width="10" height="10" fill="#161b22" rx="2"><title>2025-05-20: 0 events</title></rect>
    <rect x="39" y="26" width="10" height="10" fill="#26a641" rx="2"><title>2025-05-21: 8 events</title></rect>
    <rect x="39" y="39" width="10" height="10" fill="#161b22" rx="2"><title>2025-05-22: 0 events</title></rect>
    <rect x="39" y="52" width="10" height="10" fill="#161b22" rx="2"><title>2025-05-23: 0 events</title></rect>
    <rect x="39" y="65" width="10" height="10" fill="#0e4429" rx="2"><title>2025-05-24: 2 events</title></rect>
    <rect x="39" y="78" width="10" height="10" fill="#161b22" rx="2"><title>2025-05-25: 0 events</title></rect>
    <rect x="52" y="0" width="10" height="10" fill="#161b22" rx="2"><title>2025-05-26: 0 events</title></rect>
    <rect x="52" y="13" width="10" height="10" fill="#0e4429" rx="2"><title>2025-05-27: 2 events</title></rect>
    <rect x="52" y="26" width="10" height="10" fill="#161b22" rx="2"><title>2025-05-28: 0 events</title></rect>
    <rect x="52" y="39" width="10" height="10" fill="#39d353" rx="2"><title>2025-05-29: 20 events</title></rect>
    <rect x="52" y="52" width="10" height="10" fill="#0e4429" rx="2"><title>2025-05-30: 2 events</title></rect>
    <rect x="52" y="65" width="10" height="10" fill="#006d32" rx="2"><title>2025-05-31: 4 events</title></rect>
    <rect x="52" y="78" width="10" height="10" fill="#0e4429" rx="2"><title>2025-06-01: 2 events</title></rect>
    <rect x="65" y="0" width="10" height="10" fill="#26a641" rx="2"><title>2025-06-02: 8 events</title></rect>
    <rect x="65" y="13" width="10" height="10" fill="#161b22" rx="2"><title>2025-06-03: 0 events</title></rect>
    <rect x="65" y="26" width="10" height="10" fill="#161b22" rx="2"><title>2025-06-04: 0 events</title></rect>
    <rect x="65" y="39" width="10" height="10" fill="#161b22" rx="2"><title>2025-06-05: 0 events</title></rect>
    <rect x="65" y="52" width="10" height="10" fill="#161b22" rx="2"><title>2025-06-06: 0 events</title></rect>
    <rect x="65" y="65" width="10" height="10" fill="#161b22" rx="2"><title>2025-06-07: 0 events</title></rect>
    <rect x="65" y="78" width="10" height="10" fill="#161b22" rx="2"><title>2025-06-08: 0 events</title></rect>
    <rect x="78" y="0" width="10" height="10" fill="#161b22" rx="2"><title>2025-06-09: 0 events</title></rect>
    <rect x="78" y="13" width="10" height="10" fill="#161b22" rx="2"><title>2025-06-10: 0 events</title></rect>
    <rect x="78" y="26" width="10" height="10" fill="#161b22" rx="2"><title>2025-06-11: 0 events</title></rect>
    <rect x="78" y="39" width="10" height="10" fill="#0e4429" rx="2"><title>2025-06-12: 2 events</title></rect>
    <rect x="78" y="52" width="10" height="10" fill="#006d32" rx="2"><title>2025-06-13: 6 events</title></rect>
    <rect x="78" y="65" width="10" height="10" fill="#161b22" rx="2"><title>2025-06-14: 0 events</title></rect>
    <rect x="78" y="78" width="10" height="10" fill="#006d32" rx="2"><title>2025-06-15: 4 events</title></rect>
    <rect x="91" y="0" width="10" height="10" fill="#0e4429" rx="2"><title>2025-06-16: 2 events</title></rect>
    <rect x="91" y="13" width="10" height="10" fill="#0e4429" rx="2"><title>2025-06-17: 1 events</title></rect>
    <rect x="91" y="26" width="10" height="10" fill="#161b22" rx="2"><title>2025-06-18: 0 events</title></rect>
    <rect x="91" y="39" width="10" height="10" fill="#161b22" rx="2"><title>2025-06-19: 0 events</title></rect>
    <rect x="91" y="52" width="10" height="10" fill="#0e4429" rx="2"><title>2025-06-20: 3 events</title></rect>
    <rect x="91" y="65" width="10" height="10" fill="#26a641" rx="2"><title>2025-06-21: 8 events</title></rect>
    <rect x="91" y="78" width="10" height="10" fill="#161b22" rx="2"><title>2025-06-22: 0 events</title></rect>
    <rect x="104" y="0" width="10" height="10" fill="#0e4429" rx="2"><title>2025-06-23: 2 events</title></rect>
    <rect x="104" y="13" width="10" height="10" fill="#0e4429" rx="2"><title>2025-06-24: 1 events</title></rect>
    <rect x="104" y="26" width="10" height="10" fill="#161b22" rx="2"><title>2025-06-25: 0 events</title></rect>
    <rect x="104" y="39" width="10" height="10" fill="#161b22" rx="2"><title>2025-06-26: 0 events</title></rect>
    <rect x="104" y="52" width="10" height="10" fill="#0e4429" rx="2"><title>2025-06-27: 1 events</title></rect>
    <rect x="104" y="65" width="10" height="10" fill="#161b22" rx="2"><title>2025-06-28: 0 events</title></rect>
    <rect x="104" y="78" width="10" height="10" fill="#161b22" rx="2"><title>2025-06-29: 0 events</title></rect>
    <rect x="117" y="0" width="10" height="10" fill="#161b22" rx="2"><title>2025-06-30: 0 events</title></rect>
    <rect x="117" y="13" width="10" height="10" fill="#161b22" rx="2"><title>2025-07-01: 0 events</title></rect>
    <rect x="117" y="26" width="10" height="10" fill="#161b22" rx="2"><title>2025-07-02: 0 events</title></rect>
    <rect x="117" y="39" width="10" height="10" fill="#161b22" rx="2"><title>2025-07-03: 0 events</title></rect>
    <rect x="117" y="52" width="10" height="10" fill="#161b22" rx="2"><title>2025-07-04: 0 events</title></rect>
    <rect x="117" y="65" width="10" height="10" fill="#26a641" rx="2"><title>2025-07-05: 7 events</title></rect>
    <rect x="117" y="78" width="10" height="10" fill="#0e4429" rx="2"><title>2025-07-06: 2 events</title></rect>
    <rect x="130" y="0" width="10" height="10" fill="#0e4429" rx="2"><title>2025-07-07: 2 events</title></rect>
    <rect x="130" y="13" width="10" height="10" fill="#39d353" rx="2"><title>2025-07-08: 21 events</title></rect>
    <rect x="130" y="26" width="10" height="10" fill="#39d353" rx="2"><title>2025-07-09: 17 events</title></rect>
    <rect x="130" y="39" width="10" height="10" fill="#161b22" rx="2"><title>2025-07-10: 0 events</title></rect>
    <rect x="130" y="52" width="10" height="10" fill="#161b22" rx="2"><title>2025-07-11: 0 events</title></rect>
    <rect x="130" y="65" width="10" height="10" fill="#161b22" rx="2"><title>2025-07-12: 0 events</title></rect>
    <rect x="130" y="78" width="10" height="10" fill="#161b22" rx="2"><title>2025-07-13: 0 events</title></rect>
    <rect x="143" y="0" width="10" height="10" fill="#161b22" rx="2"><title>2025-07-14: 0 events</title></rect>
    <rect x="143" y="13" width="10" height="10" fill="#0e4429" rx="2"><title>2025-07-15: 2 events</title></rect>
    <rect x="143" y="26" width="10" height="10" fill="#161b22" rx="2"><title>2025-07-16: 0 events</title></rect>
    <rect x="143" y="39" width="10" height="10" fill="#0e4429" rx="2"><title>2025-07-17: 1 events</title></rect>
    <rect x="143" y="52" width="10" height="10" fill="#161b22" rx="2"><title>2025-07-18: 0 events</title></rect>
    <rect x="143" y="65" width="10" height="10" fill="#161b22" rx="2"><title>2025-07-19: 0 events</title></rect>
    <rect x="143" y="78" width="10" height="10" fill="#161b22" rx="2"><title>2025-07-20: 0 events</title></rect>
    <rect x="156" y="0" width="10" height="10" fill="#161b22" rx="2"><title>2025-07-21: 0 events</title></rect>
    <rect x="156" y="13" width="10" height="10" fill="#161b22" rx="2"><title>2025-07-22: 0 events</title></rect>
    <rect x="156" y="26" width="10" height="10" fill="#161b22" rx="2"><title>2025-07-23: 0 events</title></rect>
    <rect x="156" y="39" width="10" height="10" fill="#161b22" rx="2"><title>2025-07-24: 0 events</title></rect>
    <rect x="156" y="52" width="10" height="10" fill="#0e4429" rx="2"><title>2025-07-25: 1 events</title></rect>
    <rect x="156" y="65" width="10" height="10" fill="#006d32" rx="2"><title>2025-07-26: 4 events</title></rect>
    <rect x="156" y="78" width="10" height="10" fill="#161b22" rx="2"><title>2025-07-27: 0 events</title></rect>
    <rect x="169" y="0" width="10" height="10" fill="#0e4429" rx="2"><title>2025-07-28: 2 events</title></rect>
    <rect x="169" y="13" width="10" height="10" fill="#161b22" rx="2"><title>2025-07-29: 0 events</title></rect>
    <rect x="169" y="26" width="10" height="10" fill="#0e4429" rx="2"><title>2025-07-30: 2 events</title></rect>
    <rect x="169" y="39" width="10" height="10" fill="#161b22" rx="2"><title>2025-07-31: 0 events</title></rect>
    <rect x="169" y="52" width="10" height="10" fill="#26a641" rx="2"><title>2025-08-01: 7 events</title></rect>
    <rect x="169" y="65" width="10" height="10" fill="#161b22" rx="2"><title>2025-08-02: 0 events</title></rect>
    <rect x="169" y="78" width="10" height="10" fill="#161b22" rx="2"><title>2025-08-03: 0 events</title></rect>
    <rect x="182" y="0" width="10" height="10" fill="#006d32" rx="2"><title>2025-08-04: 6 events</title></rect>
    <rect x="182" y="13" width="10" height="10" fill="#0e4429" rx="2"><title>2025-08-05: 3 events</title></rect>
    <rect x="182" y="26" width="10" height="10" fill="#161b22" rx="2"><title>2025-08-06: 0 events</title></rect>
    <rect x="182" y="39" width="10" height="10" fill="#161b22" rx="2"><title>2025-08-07: 0 events</title></rect>
    <rect x="182" y="52" width="10" height="10" fill="#161b22" rx="2"><title>2025-08-08: 0 events</title></rect>
    <rect x="182" y="65" width="10" height="10" fill="#161b22" rx="2"><title>2025-08-09: 0 events</title></rect>
    <rect x="182" y="78" width="10" height="10" fill="#0e4429" rx="2"><title>2025-08-10: 2 events</title></rect>
    <rect x="195" y="0" width="10" height="10" fill="#161b22" rx="2"><title>2025-08-11: 0 events</title></rect>
    <rect x="195" y="13" width="10" height="10" fill="#0e4429" rx="2"><title>2025-08-12: 2 events</title></rect>
    <rect x="195" y="26" width="10" height="10" fill="#161b22" rx="2"><title>2025-08-13: 0 events</title></rect>
    <rect x="195" y="39" width="10" height="10" fill="#161b22" rx="2"><title>2025-08-14: 0 events</title></rect>
    <rect x="195" y="52" width="10" height="10" fill="#161b22" rx="2"><title>2025-08-15: 0 events</title></rect>
    <rect x="195" y="65" width="10" height="10" fill="#161b22" rx="2"><title>2025-08-16: 0 events</title></rect>
    <rect x="195" y="78" width="10" height="10" fill="#006d32" rx="2"><title>2025-08-17: 4 events</title></rect>
    <rect x="208" y="0" width="10" height="10" fill="#161b22" rx="2"><title>2025-08-18: 0 events</title></rect>
    <rect x="208" y="13" width="10" height="10" fill="#161b22" rx="2"><title>2025-08-19: 0 events</title></rect>
    <rect x="208" y="26" width="10" height="10" fill="#161b22" rx="2"><title>2025-08-20: 0 events</title></rect>
    <rect x="208" y="39" width="10" height="10" fill="#161b22" rx="2"><title>2025-08-21: 0 events</title></rect>
    <rect x="208" y="52" width="10" height="10" fill="#161b22" rx="2"><title>2025-08-22: 0 events</title></rect>
    <rect x="208" y="65" width="10" height="10" fill="#161b22" rx="2"><title>2025-08-23: 0 events</title></rect>
    <rect x="208" y="78" width="10" height="10" fill="#161b22" rx="2"><title>2025-08-24: 0 events</title></rect>
    <rect x="221" y="0" width="10" height="10" fill="#161b22" rx="2"><title>2025-08-25: 0 events</title></rect>
    <rect x="221" y="13" width="10" height="10" fill="#161b22" rx="2"><title>2025-08-26: 0 events</title></rect>
    <rect x="221" y="26" width="10" height="10" fill="#39d353" rx="2"><title>2025-08-27: 24 events</title></rect>
    <rect x="221" y="39" width="10" height="10" fill="#39d353" rx="2"><title>2025-08-28: 19 events</title></rect>
    <rect x="221" y="52" width="10" height="10" fill="#0e4429" rx="2"><title>2025-08-29: 2 events</title></rect>
    <rect x="221" y="65" width="10" height="10" fill="#161b22" rx="2"><title>2025-08-30: 0 events</title></rect>
    <rect x="221" y="78" width="10" height="10" fill="#0e4429" rx="2"><title>2025-08-31: 1 events</title></rect>
    <rect x="234" y="0" width="10" height="10" fill="#161b22" rx="2"><title>2025-09-01: 0 events</title></rect>
    <rect x="234" y="13" width="10" height="10" fill="#161b22" rx="2"><title>2025-09-02: 0 events</title></rect>
    <rect x="234" y="26" width="10" height="10" fill="#26a641" rx="2"><title>2025-09-03: 7 events</title></rect>
    <rect x="234" y="39" width="10" height="10" fill="#0e4429" rx="2"><title>2025-09-04: 2 events</title></rect>
    <rect x="234" y="52" width="10" height="10" fill="#0e4429" rx="2"><title>2025-09-05: 1 events</title></rect>
    <rect x="234" y="65" width="10" height="10" fill="#161b22" rx="2"><title>2025-09-06: 0 events</title></rect>
    <rect x="234" y="78" width="10" height="10" fill="#161b22" rx="2"><title>2025-09-07: 0 events</title></rect>
    <rect x="247" y="0" width="10" height="10" fill="#161b22" rx="2"><title>2025-09-08: 0 events</title></rect>
    <rect x="247" y="13" width="10" height="10" fill="#0e4429" rx="2"><title>2025-09-09: 1 events</title></rect>
    <rect x="247" y="26" width="10" height="10" fill="#161b22" rx="2"><title>2025-09-10: 0 events</title></rect>
    <rect x="247" y="39" width="10" height="10" fill="#161b22" rx="2"><title>2025-09-11: 0 events</title></rect>
    <rect x="247" y="52" width="10" height="10" fill="#161b22" rx="2"><title>2025-09-12: 0 events</title></rect>
    <rect x="247" y="65" width="10" height="10" fill="#0e4429" rx="2"><title>2025-09-13: 2 events</title></rect>
    <rect x="247" y="78" width="10" height="10" fill="#0e4429" rx="2"><title>2025-09-14: 2 events</title></rect>
    <rect x="260" y="0" width="10" height="10" fill="#161b22" rx="2"><title>2025-09-15: 0 events</title></rect>
    <rect x="260" y="13" width="10" height="10" fill="#0e4429" rx="2"><title>2025-09-16: 1 events</title></rect>
    <rect x="260" y="26" width="10" height="10" fill="#0e4429" rx="2"><title>2025-09-17: 2 events</title></rect>
    <rect x="260" y="39" width="10" height="10" fill="#26a641" rx="2"><title>2025-09-18: 8 events</title></rect>
    <rect x="260" y="52" width="10" height="10" fill="#0e4429" rx="2"><title>2025-09-19: 1 events</title></rect>
    <rect x="260" y="65" width="10" height="10" fill="#161b22" rx="2"><title>2025-09-20: 0 events</title></rect>
    <rect x="260" y="78" width="10" height="10" fill="#161b22" rx="2"><title>2025-09-21: 0 events</title></rect>
    <rect x="273" y="0" width="10" height="10" fill="#161b22" rx="2"><title>2025-09-22: 0 events</title></rect>
    <rect x="273" y="13" width="10" height="10" fill="#161b22" rx="2"><title>2025-09-23: 0 events</title></rect>
    <rect x="273" y="26" width="10" height="10" fill="#161b22" rx="2"><title>2025-09-24: 0 events</title></rect>
    <rect x="273" y="39" width="10" height="10" fill="#161b22" rx="2"><title>2025-09-25: 0 events</title></rect>
    <rect x="273" y="52" width="10" height="10" fill="#161b22" rx="2"><title>2025-09-26: 0 events</title></rect>
    <rect x="273" y="65" width="10" height="10" fill="#161b22" rx="2"><title>2025-09-27: 0 events</title></rect>
    <rect x="273" y="78" width="10" height="10" fill="#006d32" rx="2"><title>2025-09-28: 6 events</title></rect>
    <rect x="286" y="0" width="10" height="10" fill="#0e4429" rx="2"><title>2025-09-29: 2 events</title></rect>
    <rect x="286" y="13" width="10" height="10" fill="#161b22" rx="2"><title>2025-09-30: 0 events</title></rect>
    <rect x="286" y="26" width="10" height="10" fill="#161b22" rx="2"><title>2025-10-01: 0 events</title></rect>
    <rect x="286" y="39" width="10" height="10" fill="#0e4429" rx="2"><title>2025-10-02: 1 events</title></rect>
    <rect x="286" y="52" width="10" height="10" fill="#39d353" rx="2"><title>2025-10-03: 10 events</title></rect>
    <rect x="286" y="65" width="10" height="10" fill="#0e4429" rx="2"><title>2025-10-04: 2 events</title></rect>
    <rect x="286" y="78" width="10" height="10" fill="#161b22" rx="2"><title>2025-10-05: 0 events</title></rect>
    <rect x="299" y="0" width="10" height="10" fill="#161b22" rx="2"><title>2025-10-06: 0 events</title></rect>
    <rect x="299" y="13" width="10" height="10" fill="#161b22" rx="2"><title>2025-10-07: 0 events</title></rect>
    <rect x="299" y="26" width="10" height="10" fill="#006d32" rx="2"><title>2025-10-08: 4 events</title></rect>
    <rect x="299" y="39" width="10" height="10" fill="#161b22" rx="2"><title>2025-10-09: 0 events</title></rect>
    <rect x="299" y="52" width="10" height="10" fill="#0e4429" rx="2"><title>2025-10-10: 1 events</title></rect>
    <rect x="299" y="65" width="10" height="10" fill="#161b22" rx="2"><title>2025-10-11: 0 events</title></rect>
    <rect x="299" y="78" width="10" height="10" fill="#161b22" rx="2"><title>2025-10-12: 0 events</title></rect>
    <rect x="312" y="0" width="10" height="10" fill="#161b22" rx="2"><title>2025-10-13: 0 events</title></rect>
    <rect x="312" y="13" width="10" height="10" fill="#26a641" rx="2"><title>2025-10-14: 9 events</title></rect>
    <rect x="312" y="26" width="10" height="10" fill="#0e4429" rx="2"><title>2025-10-15: 3 events</title></rect>
    <rect x="312" y="39" width="10" height="10" fill="#0e4429" rx="2"><title>2025-10-16: 1 events</title></rect>
    <rect x="312" y="52" width="10" height="10" fill="#0e4429" rx="2"><title>2025-10-17: 2 events</title></rect>
    <rect x="312" y="65" width="10" height="10" fill="#006d32" rx="2"><title>2025-10-18: 4 events</title></rect>
    <rect x="312" y="78" width="10" height="10" fill="#161b22" rx="2"><title>2025-10-19: 0 events</title></rect>
    <rect x="325" y="0" width="10" height="10" fill="#0e4429" rx="2"><title>2025-10-20: 2 events</title></rect>
    <rect x="325" y="13" width="10" height="10" fill="#26a641" rx="2"><title>2025-10-21: 7 events</title></rect>
    <rect x="325" y="26" width="10" height="10" fill="#161b22" rx="2"><title>2025-10-22: 0 events</title></rect>
    <rect x="325" y="39" width="10" height="10" fill="#161b22" rx="2"><title>2025-10-23: 0 events</title></rect>
    <rect x="325" y="52" width="10" height="10" fill="#006d32" rx="2"><title>2025-10-24: 4 events</title></rect>
    <rect x="325" y="65" width="10" height="10" fill="#39d353" rx="2"><title>2025-10-25: 16 events</title></rect>
    <rect x="325" y="78" width="10" height="10" fill="#161b22" rx="2"><title>2025-10-26: 0 events</title></rect>
    <rect x="338" y="0" width="10" height="10" fill="#161b22" rx="2"><title>2025-10-27: 0 events</title></rect>
    <rect x="338" y="13" width="10" height="10" fill="#0e4429" rx="2"><title>2025-10-28: 1 events</title></rect>
    <rect x="338" y="26" width="10" height="10" fill="#006d32" rx="2"><title>2025-10-29: 5 events</title></rect>
    <rect x="338" y="39" width="10" height="10" fill="#161b22" rx="2"><title>2025-10-30: 0 events</title></rect>
    <rect x="338" y="52" width="10" height="10" fill="#161b22" rx="2"><title>2025-10-31: 0 events</title></rect>
    <rect x="338" y="65" width="10" height="10" fill="#0e4429" rx="2"><title>2025-11-01: 1 events</title></rect>
    <rect x="338" y="78" width="10" height="10" fill="#161b22" rx="2"><title>2025-11-02: 0 events</title></rect>
    <rect x="351" y="0" width="10" height="10" fill="#39d353" rx="2"><title>2025-11-03: 20 events</title></rect>
    <rect x="351" y="13" width="10" height="10" fill="#161b22" rx="2"><title>2025-11-04: 0 events</title></rect>
    <rect x="351" y="26" width="10" height="10" fill="#161b22" rx="2"><title>2025-11-05: 0 events</title></rect>
    <rect x="351" y="39" width="10" height="10" fill="#161b22" rx="2"><title>2025-11-06: 0 events</title></rect>
    <rect x="351" y="52" width="10" height="10" fill="#161b22" rx="2"><title>2025-11-07: 0 events</title></rect>
    <rect x="351" y="65" width="10" height="10" fill="#0e4429" rx="2"><title>2025-11-08: 1 events</title></rect>
    <rect x="351" y="78" width="10" height="10" fill="#161b22" rx="2"><title>2025-11-09: 0 events</title></rect>
    <rect x="364" y="0" width="10" height="10" fill="#0e4429" rx="2"><title>2025-11-10: 2 events</title></rect>
    <rect x="364" y="13" width="10" height="10" fill="#39d353" rx="2"><title>2025-11-11: 13 events</title></rect>
    <rect x="364" y="26" width="10" height="10" fill="#0e4429" rx="2"><title>2025-11-12: 3 events</title></rect>
    <rect x="364" y="39" width="10" height="10" fill="#26a641" rx="2"><title>2025-11-13: 8 events</title></rect>
    <rect x="364" y="52" width="10" height="10" fill="#161b22" rx="2"><title>2025-11-14: 0 events</title></rect>
    <rect x="364" y="65" width="10" height="10" fill="#0e4429" rx="2"><title>2025-11-15: 1 events</title></rect>
    <rect x="364" y="78" width="10" height="10" fill="#161b22" rx="2"><title>2025-11-16: 0 events</title></rect>
    <rect x="377" y="0" width="10" height="10" fill="#0e4429" rx="2"><title>2025-11-17: 1 events</title></rect>
    <rect x="377" y="13" width="10" height="10" fill="#161b22" rx="2"><title>2025-11-18: 0 events</title></rect>
    <rect x="377" y="26" width="10" height="10" fill="#006d32" rx="2"><title>2025-11-19: 6 events</title></rect>
    <rect x="377" y="39" width="10" height="10" fill="#0e4429" rx="2"><title>2025-11-20: 1 events</title></rect>
    <rect x="377" y="52" width="10" height="10" fill="#161b22" rx="2"><title>2025-11-21: 0 events</title></rect>
    <rect x="377" y="65" width="10" height="10" fill="#161b22" rx="2"><title>2025-11-22: 0 events</title></rect>
    <rect x="377" y="78" width="10" height="10" fill="#006d32" rx="2"><title>2025-11-23: 5 events</title></rect>
    <rect x="390" y="0" width="10" height="10" fill="#0e4429" rx="2"><title>2025-11-24: 1 events</title></rect>
    <rect x="390" y="13" width="10" height="10" fill="#0e4429" rx="2"><title>2025-11-25: 1 events</title></rect>
    <rect x="390" y="26" width="10" height="10" fill="#161b22" rx="2"><title>2025-11-26: 0 events</title></rect>
    <rect x="390" y="39" width="10" height="10" fill="#26a641" rx="2"><title>2025-11-27: 9 events</title></rect>
    <rect x="390" y="52" width="10" height="10" fill="#0e4429" rx="2"><title>2025-11-28: 1 events</title></rect>
    <rect x="390" y="65" width="10" height="10" fill="#161b22" rx="2"><title>2025-11-29: 0 events</title></rect>
    <rect x="390" y="78" width="10" height="10" fill="#161b22" rx="2"><title>2025-11-30: 0 events</title></rect>
    <rect x="403" y="0" width="10" height="10" fill="#161b22" rx="2"><title>2025-12-01: 0 events</title></rect>
    <rect x="403" y="13" width="10" height="10" fill="#0e4429" rx="2"><title>2025-12-02: 1 events</title></rect>
    <rect x="403" y="26" width="10" height="10" fill="#161b22" rx="2"><title>2025-12-03: 0 events</title></rect>
    <rect x="403" y="39" width="10" height="10" fill="#006d32" rx="2"><title>2025-12-04: 5 events</title></rect>
    <rect x="403" y="52" width="10" height="10" fill="#0e4429" rx="2"><title>2025-12-05: 1 events</title></rect>
    <rect x="403" y="65" width="10" height="10" fill="#161b22" rx="2"><title>2025-12-06: 0 events</title></rect>
    <rect x="403" y="78" width="10" height="10" fill="#161b22" rx="2"><title>2025-12-07: 0 events</title></rect>
    <rect x="416" y="0" width="10" height="10" fill="#0e4429" rx="2"><title>2025-12-08: 1 events</title></rect>
    <rect x="416" y="13" width="10" height="10" fill="#0e4429" rx="2"><title>2025-12-09: 2 events</title></rect>
    <rect x="416" y="26" width="10" height="10" fill="#0e4429" rx="2"><title>2025-12-10: 1 events</title></rect>
    <rect x="416" y="39" width="10" height="10" fill="#161b22" rx="2"><title>2025-12-11: 0 events</title></rect>
    <rect x="416" y="52" width="10" height="10" fill="#161b22" rx="2"><title>2025-12-12: 0 events</title></rect>
    <rect x="416" y="65" width="10" height="10" fill="#0e4429" rx="2"><title>2025-12-13: 1 events</title></rect>
    <rect x="416" y="78" width="10" height="10" fill="#0e4429" rx="2"><title>2025-12-14: 2 events</title></rect>
    <rect x="429" y="0" width="10" height="10" fill="#161b22" rx="2"><title>2025-12-15: 0 events</title></rect>
    <rect x="429" y="13" width="10" height="10" fill="#0e4429" rx="2"><title>2025-12-16: 3 events</title></rect>
    <rect x="429" y="26" width="10" height="10" fill="#161b22" rx="2"><title>2025-12-17: 0 events</title></rect>
    <rect x="429" y="39" width="10" height="10" fill="#161b22" rx="2"><title>2025-12-18: 0 events</title></rect>
    <rect x="429" y="52" width="10" height="10" fill="#0e4429" rx="2"><title>2025-12-19: 1 events</title></rect>
    <rect x="429" y="65" width="10" height="10" fill="#0e4429" rx="2"><title>2025-12-20: 1 events</title></rect>
    <rect x="429" y="78" width="10" height="10" fill="#161b22" rx="2"><title>2025-12-21: 0 events</title></rect>
    <rect x="442" y="0" width="10" height="10" fill="#161b22" rx="2"><title>2025-12-22: 0 events</title></rect>
    <rect x="442" y="13" width="10" height="10" fill="#161b22" rx="2"><title>2025-12-23: 0 events</title></rect>
    <rect x="442" y="26" width="10" height="10" fill="#0e4429" rx="2"><title>2025-12-24: 1 events</title></rect>
    <rect x="442" y="39" width="10" height="10" fill="#161b22" rx="2"><title>2025-12-25: 0 events</title></rect>
    <rect x="442" y="52" width="10" height="10" fill="#161b22" rx="2"><title>2025-12-26: 0 events</title></rect>
    <rect x="442" y="65" width="10" height="10" fill="#161b22" rx="2"><title>2025-12-27: 0 events</title></rect>
    <rect x="442" y="78" width="10" height="10" fill="#161b22" rx="2"><title>2025-12-28: 0 events</title></rect>
    <rect x="455" y="0" width="10" height="10" fill="#161b22" rx="2"><title>2025-12-29: 0 events</title></rect>
    <rect x="455" y="13" width="10" height="10" fill="#161b22" rx="2"><title>2025-12-30: 0 events</title></rect>
    <rect x="455" y="26" width="10" height="10" fill="#161b22" rx="2"><title>2025-12-31: 0 events</title></rect>
    <rect x="455" y="39" width="10" height="10" fill="#161b22" rx="2"><title>2026-01-01: 0 events</title></rect>
    <rect x="455" y="52" width="10" height="10" fill="#161b22" rx="2"><title>2026-01-02: 0 events</title></rect>
    <rect x="455" y="65" width="10" height="10" fill="#161b22" rx="2"><title>2026-01-03: 0 events</title></rect>
    <rect x="455" y="78" width="10" height="10" fill="#161b22" rx="2"><title>2026-01-04: 0 events</title></rect>
    <rect x="468" y="0" width="10" height="10" fill="#006d32" rx="2"><title>2026-01-05: 6 events</title></rect>
    <rect x="468" y="13" width="10" height="10" fill="#0e4429" rx="2"><title>2026-01-06: 2 events</title></rect>
    <rect x="468" y="26" width="10" height="10" fill="#161b22" rx="2"><title>2026-01-07: 0 events</title></rect>
    <rect x="468" y="39" width="10" height="10" fill="#161b22" rx="2"><title>2026-01-08: 0 events</title></rect>
    <rect x="468" y="52" width="10" height="10" fill="#161b22" rx="2"><title>2026-01-09: 0 events</title></rect>
    <rect x="468" y="65" width="10" height="10" fill="#161b22" rx="2"><title>2026-01-10: 0 events</title></rect>
    <rect x="468" y="78" width="10" height="10" fill="#161b22" rx="2"><title>2026-01-11: 0 events</title></rect>
    <rect x="481" y="0" width="10" height="10" fill="#0e4429" rx="2"><title>2026-01-12: 1 events</title></rect>
    <rect x="481" y="13" width="10" height="10" fill="#161b22" rx="2"><title>2026-01-13: 0 events</title></rect>
    <rect x="481" y="26" width="10" height="10" fill="#161b22" rx="2"><title>2026-01-14: 0 events</title></rect>
    <rect x="481" y="39" width="10" height="10" fill="#161b22" rx="2"><title>2026-01-15: 0 events</title></rect>
    <rect x="481" y="52" width="10" height="10" fill="#0e4429" rx="2"><title>2026-01-16: 2 events</title></rect>
    <rect x="481" y="65" width="10" height="10" fill="#0e4429" rx="2"><title>2026-01-17: 2 events</title></rect>
    <rect x="481" y="78" width="10" height="10" fill="#161b22" rx="2"><title>2026-01-18: 0 events</title></rect>
    <rect x="494" y="0" width="10" height="10" fill="#0e4429" rx="2"><title>2026-01-19: 1 events</title></rect>
    <rect x="494" y="13" width="10" height="10" fill="#161b22" rx="2"><title>2026-01-20: 0 events</title></rect>
    <rect x="494" y="26" width="10" height="10" fill="#161b22" rx="2"><title>2026-01-21: 0 events</title></rect>
    <rect x="494" y="39" width="10" height="10" fill="#161b22" rx="2"><title>2026-01-22: 0 events</title></rect>
    <rect x="494" y="52" width="10" height="10" fill="#161b22" rx="2"><title>2026-01-23: 0 events</title></rect>
    <rect x="494" y="65" width="10" height="10" fill="#161b22" rx="2"><title>2026-01-24: 0 events</title></rect>
    <rect x="494" y="78" width="10" height="10" fill="#161b22" rx="2"><title>2026-01-25: 0 events</title></rect>
    <rect x="507" y="0" width="10" height="10" fill="#161b22" rx="2"><title>2026-01-26: 0 events</title></rect>
    <rect x="507" y="13" width="10" height="10" fill="#0e4429" rx="2"><title>2026-01-27: 1 events</title></rect>
    <rect x="507" y="26" width="10" height="10" fill="#161b22" rx="2"><title>2026-01-28: 0 events</title></rect>
    <rect x="507" y="39" width="10" height="10" fill="#161b22" rx="2"><title>2026-01-29: 0 events</title></rect>
    <rect x="507" y="52" width="10" height="10" fill="#161b22" rx="2"><title>2026-01-30: 0 events</title></rect>
    <rect x="507" y="65" width="10" height="10" fill="#161b22" rx="2"><title>2026-01-31: 0 events</title></rect>
    <rect x="507" y="78" width="10" height="10" fill="#161b22" rx="2"><title>2026-02-01: 0 events</title></rect>
    <rect x="520" y="0" width="10" height="10" fill="#0e4429" rx="2"><title>2026-02-02: 1 events</title></rect>
    <rect x="520" y="13" width="10" height="10" fill="#0e4429" rx="2"><title>2026-02-03: 1 events</title></rect>
    <rect x="520" y="26" width="10" height="10" fill="#161b22" rx="2"><title>2026-02-04: 0 events</title></rect>
    <rect x="520" y="39" width="10" height="10" fill="#161b22" rx="2"><title>2026-02-05: 0 events</title></rect>
    <rect x="520" y="52" width="10" height="10" fill="#161b22" rx="2"><title>2026-02-06: 0 events</title></rect>
    <rect x="520" y="65" width="10" height="10" fill="#161b22" rx="2"><title>2026-02-07: 0 events</title></rect>
    <rect x="520" y="78" width="10" height="10" fill="#161b22" rx="2"><title>2026-02-08: 0 events</title></rect>
    <rect x="533" y="0" width="10" height="10" fill="#0e4429" rx="2"><title>2026-02-09: 1 events</title></rect>
    <rect x="533" y="13" width="10" height="10" fill="#161b22" rx="2"><title>2026-02-10: 0 events</title></rect>
    <rect x="533" y="26" width="10" height="10" fill="#0e4429" rx="2"><title>2026-02-11: 1 events</title></rect>
    <rect x="533" y="39" width="10" height="10" fill="#0e4429" rx="2"><title>2026-02-12: 1 events</title></rect>
    <rect x="533" y="52" width="10" height="10" fill="#161b22" rx="2"><title>2026-02-13: 0 events</title></rect>
    <rect x="533" y="65" width="10" height="10" fill="#0e4429" rx="2"><title>2026-02-14: 1 events</title></rect>
    <rect x="533" y="78" width="10" height="10" fill="#161b22" rx="2"><title>2026-02-15: 0 events</title></rect>
    <rect x="546" y="0" width="10" height="10" fill="#161b22" rx="2"><title>2026-02-16: 0 events</title></rect>
    <rect x="546" y="13" width="10" height="10" fill="#006d32" rx="2"><title>2026-02-17: 4 events</title></rect>
    <rect x="546" y="26" width="10" height="10" fill="#0e4429" rx="2"><title>2026-02-18: 1 events</title></rect>
    <rect x="546" y="39" width="10" height="10" fill="#161b22" rx="2"><title>2026-02-19: 0 events</title></rect>
    <rect x="546" y="52" width="10" height="10" fill="#0e4429" rx="2"><title>2026-02-20: 1 events</title></rect>
    <rect x="546" y="65" width="10" height="10" fill="#161b22" rx="2"><title>2026-02-21: 0 events</title></rect>
    <rect x="546" y="78" width="10" height="10" fill="#161b22" rx="2"><title>2026-02-22: 0 events</title></rect>
    <rect x="559" y="0" width="10" height="10" fill="#0e4429" rx="2"><title>2026-02-23: 3 events</title></rect>
    <rect x="559" y="13" width="10" height="10" fill="#0e4429" rx="2"><title>2026-02-24: 1 events</title></rect>
    <rect x="559" y="26" width="10" height="10" fill="#006d32" rx="2"><title>2026-02-25: 6 events</title></rect>
    <rect x="559" y="39" width="10" height="10" fill="#161b22" rx="2"><title>2026-02-26: 0 events</title></rect>
    <rect x="559" y="52" width="10" height="10" fill="#161b22" rx="2"><title>2026-02-27: 0 events</title></rect>
    <rect x="559" y="65" width="10" height="10" fill="#161b22" rx="2"><title>2026-02-28: 0 events</title></rect>
    <rect x="559" y="78" width="10" height="10" fill="#161b22" rx="2"><title>2026-03-01: 0 events</title></rect>
    <rect x="572" y="0" width="10" height="10" fill="#161b22" rx="2"><title>2026-03-02: 0 events</title></rect>
    <rect x="572" y="13" width="10" height="10" fill="#0e4429" rx="2"><title>2026-03-03: 1 events</title></rect>
    <rect x="572" y="26" width="10" height="10" fill="#161b22" rx="2"><title>2026-03-04: 0 events</title></rect>
    <rect x="572" y="39" width="10" height="10" fill="#161b22" rx="2"><title>2026-03-05: 0 events</title></rect>
    <rect x="572" y="52" width="10" height="10" fill="#0e4429" rx="2"><title>2026-03-06: 1 events</title></rect>
    <rect x="572" y="65" width="10" height="10" fill="#161b22" rx="2"><title>2026-03-07: 0 events</title></rect>
    <rect x="572" y="78" width="10" height="10" fill="#161b22" rx="2"><title>2026-03-08: 0 events</title></rect>
    <rect x="585" y="0" width="10" height="10" fill="#161b22" rx="2"><title>2026-03-09: 0 events</title></rect>
    <rect x="585" y="13" width="10" height="10" fill="#0e4429" rx="2"><title>2026-03-10: 1 events</title></rect>
    <rect x="585" y="26" width="10" height="10" fill="#006d32" rx="2"><title>2026-03-11: 6 events</title></rect>
    <rect x="585" y="39" width="10" height="10" fill="#0e4429" rx="2"><title>2026-03-12: 2 events</title></rect>
    <rect x="585" y="52" width="10" height="10" fill="#161b22" rx="2"><title>2026-03-13: 0 events</title></rect>
    <rect x="585" y="65" width="10" height="10" fill="#006d32" rx="2"><title>2026-03-14: 4 events</title></rect>
    <rect x="585" y="78" width="10" height="10" fill="#161b22" rx="2"><title>2026-03-15: 0 events</title></rect>
    <rect x="598" y="0" width="10" height="10" fill="#161b22" rx="2"><title>2026-03-16: 0 events</title></rect>
    <rect x="598" y="13" width="10" height="10" fill="#161b22" rx="2"><title>2026-03-17: 0 events</title></rect>
    <rect x="598" y="26" width="10" height="10" fill="#26a641" rx="2"><title>2026-03-18: 7 events</title></rect>
    <rect x="598" y="39" width="10" height="10" fill="#0e4429" rx="2"><title>2026-03-19: 1 events</title></rect>
    <rect x="598" y="52" width="10" height="10" fill="#161b22" rx="2"><title>2026-03-20: 0 events</title></rect>
    <rect x="598" y="65" width="10" height="10" fill="#161b22" rx="2"><title>2026-03-21: 0 events</title></rect>
    <rect x="598" y="78" width="10" height="10" fill="#161b22" rx="2"><title>2026-03-22: 0 events</title></rect>
    <rect x="611" y="0" width="10" height="10" fill="#161b22" rx="2"><title>2026-03-23: 0 events</title></rect>
    <rect x="611" y="13" width="10" height="10" fill="#161b22" rx="2"><title>2026-03-24: 0 events</title></rect>
    <rect x="611" y="26" width="10" height="10" fill="#161b22" rx="2"><title>2026-03-25: 0 events</title></rect>
    <rect x="611" y="39" width="10" height="10" fill="#161b22" rx="2"><title>2026-03-26: 0 events</title></rect>
    <rect x="611" y="52" width="10" height="10" fill="#161b22" rx="2"><title>2026-03-27: 0 events</title></rect>
    <rect x="611" y="65" width="10" height="10" fill="#161b22" rx="2"><title>2026-03-28: 0 events</title></rect>
    <rect x="611" y="78" width="10" height="10" fill="#26a641" rx="2"><title>2026-03-29: 7 events</title></rect>
    <rect x="624" y="0" width="10" height="10" fill="#0e4429" rx="2"><title>2026-03-30: 3 events</title></rect>
    <rect x="624" y="13" width="10" height="10" fill="#0e4429" rx="2"><title>2026-03-31: 1 events</title></rect>
    <rect x="624" y="26" width="10" height="10" fill="#0e4429" rx="2"><title>2026-04-01: 1 events</title></rect>
    <rect x="624" y="39" width="10" height="10" fill="#161b22" rx="2"><title>2026-04-02: 0 events</title></rect>
    <rect x="624" y="52" width="10" height="10" fill="#0e4429" rx="2"><title>2026-04-03: 1 events</title></rect>
    <rect x="624" y="65" width="10" height="10" fill="#161b22" rx="2"><title>2026-04-04: 0 events</title></rect>
    <rect x="624" y="78" width="10" height="10" fill="#161b22" rx="2"><title>2026-04-05: 0 events</title></rect>
    <rect x="637" y="0" width="10" height="10" fill="#161b22" rx="2"><title>2026-04-06: 0 events</title></rect>
    <rect x="637" y="13" width="10" height="10" fill="#0e4429" rx="2"><title>2026-04-07: 2 events</title></rect>
    <rect x="637" y="26" width="10" height="10" fill="#161b22" rx="2"><title>2026-04-08: 0 events</title></rect>
    <rect x="637" y="39" width="10" height="10" fill="#006d32" rx="2"><title>2026-04-09: 4 events</title></rect>
    <rect x="637" y="52" width="10" height="10" fill="#26a641" rx="2"><title>2026-04-10: 7 events</title></rect>
    <rect x="637" y="65" width="10" height="10" fill="#006d32" rx="2"><title>2026-04-11: 4 events</title></rect>
    <rect x="637" y="78" width="10" height="10" fill="#161b22" rx="2"><title>2026-04-12: 0 events</title></rect>
    <rect x="650" y="0" width="10" height="10" fill="#0e4429" rx="2"><title>2026-04-13: 1 events</title></rect>
    <rect x="650" y="13" width="10" height="10" fill="#161b22" rx="2"><title>2026-04-14: 0 events</title></rect>
    <rect x="650" y="26" width="10" height="10" fill="#0e4429" rx="2"><title>2026-04-15: 1 events</title></rect>
    <rect x="650" y="39" width="10" height="10" fill="#161b22" rx="2"><title>2026-04-16: 0 events</title></rect>
    <rect x="650" y="52" width="10" height="10" fill="#161b22" rx="2"><title>2026-04-17: 0 events</title></rect>
    <rect x="650" y="65" width="10" height="10" fill="#161b22" rx="2"><title>2026-04-18: 0 events</title></rect>
    <rect x="650" y="78" width="10" height="10" fill="#161b22" rx="2"><title>2026-04-19: 0 events</title></rect>
    <rect x="663" y="0" width="10" height="10" fill="#161b22" rx="2"><title>2026-04-20: 0 events</title></rect>
    <rect x="663" y="13" width="10" height="10" fill="#161b22" rx="2"><title>2026-04-21: 0 events</title></rect>
    <rect x="663" y="26" width="10" height="10" fill="#39d353" rx="2"><title>2026-04-22: 14 events</title></rect>
    <rect x="663" y="39" width="10" height="10" fill="#161b22" rx="2"><title>2026-04-23: 0 events</title></rect>
    <rect x="663" y="52" width="10" height="10" fill="#26a641" rx="2"><title>2026-04-24: 8 events</title></rect>
    <rect x="663" y="65" width="10" height="10" fill="#161b22" rx="2"><title>2026-04-25: 0 events</title></rect>
    <rect x="663" y="78" width="10" height="10" fill="#161b22" rx="2"><title>2026-04-26: 0 events</title></rect>
    <rect x="676" y="0" width="10" height="10" fill="#161b22" rx="2"><title>2026-04-27: 0 events</title></rect>
  </g>

  <!-- Legend row: total (left), scale (right) -->
  <text x="20" y="165" fill="#c9d1d9" font-family="Arial, sans-serif" font-size="8">Number of commits (365d) : 565</text>
  <g transform="translate(629, 155)">
    <text x="0" y="10" fill="#c9d1d9" font-family="Arial, sans-serif" font-size="9">0</text>
    <rect x="30" y="0" width="10" height="10" fill="#161b22" rx="2"/>
    <rect x="43" y="0" width="10" height="10" fill="#0e4429" rx="2"/>
    <rect x="56" y="0" width="10" height="10" fill="#006d32" rx="2"/>
    <rect x="69" y="0" width="10" height="10" fill="#26a641" rx="2"/>
    <rect x="82" y="0" width="10" height="10" fill="#39d353" rx="2"/>
    <text x="100" y="10" fill="#c9d1d9" font-family="Arial, sans-serif" font-size="9">24</text>
  </g>

</svg>